<?xml version="1.0" encoding="utf-8"?>
<!-- Generator: Adobe Illustrator 22.1.0, SVG Export Plug-In . SVG Version: 6.00 Build 0)  -->
<svg version="1.1" id="레이어_1" xmlns="http://www.w3.org/2000/svg" xmlns:xlink="http://www.w3.org/1999/xlink" x="0px"
	 y="0px" viewBox="0 0 76.2 48" style="enable-background:new 0 0 76.2 48;" xml:space="preserve">
<style type="text/css">
	.st0{fill:#494949;}
</style>
<g>
	<g>
		<path class="st0" d="M3.1,12.9v7.9c0,0.2-0.1,0.3-0.3,0.3H0.3C0.1,21.2,0,21,0,20.8V1.2C0,1.1,0,1.1,0.1,1s0.1-0.1,0.2-0.1h5.4
			c2,0,3.6,0.5,4.7,1.5c1.2,1,1.7,2.5,1.7,4.5c0,1-0.2,1.9-0.5,2.6c-0.3,0.8-0.8,1.4-1.4,1.9c-0.6,0.5-1.3,0.9-2.1,1.2
			C7.3,12.9,6.4,13,5.4,13L3.1,12.9L3.1,12.9z M3.1,3.7v6.4h2.2c1.2,0,2.1-0.3,2.8-0.8s1-1.4,1-2.5c0-1-0.3-1.8-0.8-2.3
			C7.7,4,7,3.7,6.1,3.7H3.1z"/>
		<path class="st0" d="M25.3,14.4c0,0.1,0,0.3-0.1,0.3c-0.1,0.1-0.2,0.1-0.3,0.1h-8.8c0.1,1.2,0.5,2.2,1.1,2.9
			c0.7,0.8,1.6,1.1,2.7,1.1c0.6,0,1.3-0.1,2-0.2c0.8-0.2,1.4-0.4,2.1-0.8c0.1-0.1,0.2-0.1,0.2,0s0.1,0.2,0.1,0.3V20
			c0,0.2,0,0.3-0.1,0.4s-0.2,0.2-0.3,0.3c-0.5,0.3-1.2,0.5-1.9,0.6c-0.7,0.1-1.5,0.2-2.2,0.2c-2.2,0-3.9-0.7-5-2s-1.7-3.3-1.7-5.9
			c0-1,0.1-1.9,0.4-2.8c0.3-0.9,0.6-1.8,1.1-2.5s1.2-1.3,1.9-1.8c0.8-0.4,1.7-0.7,2.8-0.7c1.1,0,2,0.2,2.8,0.6s1.4,1,1.9,1.7
			s0.8,1.5,1,2.4s0.3,1.9,0.3,3c0,0.1,0,0.3,0,0.4C25.3,14.2,25.3,14.3,25.3,14.4z M19.4,8.5c-0.5,0-0.9,0.1-1.3,0.3s-0.7,0.5-1,0.8
			s-0.5,0.7-0.7,1.2c-0.2,0.4-0.3,0.9-0.4,1.3h6.1c0-0.4-0.1-0.8-0.2-1.2s-0.3-0.8-0.5-1.2S20.9,9,20.5,8.8
			C20.4,8.6,19.9,8.5,19.4,8.5z"/>
		<path class="st0" d="M36,20.9c-0.3,0.2-0.7,0.3-1.2,0.4s-1.1,0.2-1.8,0.2c-0.8,0-1.4-0.2-1.8-0.5s-0.8-0.7-1-1.1
			c-0.3-0.5-0.4-1-0.5-1.6s-0.1-1.5-0.1-2.6V9.1h-2.2c-0.1,0-0.2,0-0.2-0.1c-0.1-0.1-0.1-0.1-0.1-0.2V6.6c0-0.1,0-0.2,0.1-0.2
			c0.1-0.1,0.1-0.1,0.2-0.1h2.2V2.5c0-0.1,0-0.2,0.1-0.2c0.1-0.1,0.2-0.1,0.2-0.1h2.2c0.1,0,0.2,0,0.3,0.1s0.1,0.1,0.1,0.2v3.8h2.6
			c0.1,0,0.2,0,0.2,0.1c0.1,0.1,0.1,0.1,0.1,0.2v2.1c0,0.1,0,0.2-0.1,0.2C35.2,9,35.2,9,35.1,9h-2.6v7c0,1.2,0,2,0.1,2.3
			s0.2,0.5,0.5,0.6C33.4,19,33.7,19,34,19c0.2,0,0.5-0.1,0.8-0.1c0.3-0.1,0.5-0.1,0.8-0.2c0.1,0,0.2,0,0.2,0s0.1,0.1,0.1,0.3
			l0.2,1.8C36.1,20.7,36.1,20.8,36,20.9z"/>
		<path class="st0" d="M49.7,14.4c0,0.1,0,0.3-0.1,0.3c-0.1,0.1-0.2,0.1-0.3,0.1h-8.8c0.1,1.2,0.5,2.2,1.1,2.9
			c0.7,0.8,1.6,1.1,2.7,1.1c0.6,0,1.3-0.1,2-0.2c0.8-0.2,1.4-0.4,2.1-0.8c0.1-0.1,0.2-0.1,0.2,0s0.1,0.2,0.1,0.3V20
			c0,0.2,0,0.3-0.1,0.4s-0.2,0.2-0.3,0.3c-0.5,0.3-1.2,0.5-1.9,0.6s-1.5,0.2-2.2,0.2c-2.2,0-3.9-0.7-5-2s-1.7-3.3-1.7-5.9
			c0-1,0.1-1.9,0.4-2.8C38.2,9.9,38.5,9,39,8.3s1.2-1.3,1.9-1.8c0.8-0.4,1.7-0.7,2.8-0.7s2,0.2,2.8,0.6s1.4,1,1.9,1.7s0.8,1.5,1,2.4
			s0.3,1.9,0.3,3c0,0.1,0,0.3,0,0.4C49.7,14.2,49.7,14.3,49.7,14.4z M43.8,8.5c-0.5,0-0.9,0.1-1.3,0.3c-0.4,0.2-0.7,0.5-1,0.8
			s-0.5,0.7-0.7,1.2c-0.2,0.4-0.3,0.9-0.4,1.3h6.1c0-0.4-0.1-0.8-0.2-1.2c-0.1-0.4-0.3-0.8-0.5-1.2S45.3,9,44.9,8.8
			C44.8,8.6,44.3,8.5,43.8,8.5z"/>
		<path class="st0" d="M60.2,9c-0.4-0.1-0.7-0.1-0.9-0.2c-0.3,0-0.5,0-0.7,0c-0.5,0.1-1,0.3-1.3,0.7c-0.3,0.3-0.6,0.8-0.8,1.2
			c-0.2,0.5-0.3,1-0.3,1.5c-0.1,0.5-0.1,1-0.1,1.5v7c0,0.3-0.1,0.4-0.3,0.4h-2.2c-0.2,0-0.3-0.1-0.3-0.4V9.9c0-0.6,0-1.1,0-1.7
			s0-1.1,0-1.5c0-0.2,0-0.3,0.1-0.3s0.1-0.1,0.3-0.1h2.2c0.1,0,0.2,0,0.2,0.1c0,0,0,0.1,0,0.2v1.2c0.1-0.2,0.3-0.4,0.5-0.7
			c0.2-0.2,0.4-0.4,0.7-0.6c0.2-0.2,0.5-0.3,0.7-0.4C58.1,6,58.4,6,58.6,6c0.3,0,0.6,0,0.9,0c0.3,0,0.6,0.1,0.9,0.3
			c0.1,0,0.1,0.1,0.2,0.2c0,0.1,0,0.2,0,0.2v2c0,0.1,0,0.2-0.1,0.2C60.4,9,60.3,9,60.2,9z"/>
		<path class="st0" d="M63,0c0.5,0,0.9,0.2,1.2,0.6C64.6,1,64.8,1.5,64.8,2c0.1,0.7,0,1.2-0.1,1.7S64.3,4.6,64,5.1
			c-0.3,0.4-0.6,0.8-1,1.1c-0.4,0.3-0.8,0.5-1.3,0.6c-0.2,0.1-0.3,0.1-0.3-0.1v-1c0-0.1,0-0.2,0-0.3l0.1-0.1
			c0.3-0.1,0.6-0.4,0.8-0.6c0.2-0.3,0.3-0.6,0.4-1c-0.4-0.1-0.7-0.3-1-0.5c-0.3-0.3-0.5-0.7-0.5-1.1c0-0.6,0.2-1,0.5-1.4
			C62.1,0.2,62.5,0,63,0z"/>
		<path class="st0" d="M74.3,20.6c-1,0.6-2.1,1-3.4,1c-0.4,0-0.7,0-1.1-0.1c-0.4,0-0.8-0.1-1.1-0.1c-0.4-0.1-0.7-0.1-1-0.2
			S67.2,21.1,67,21c-0.1,0-0.1-0.1-0.2-0.1c-0.1-0.1-0.1-0.2-0.1-0.3l0.2-1.7c0-0.2,0-0.3,0.1-0.3c0,0,0.2,0,0.3,0
			c0.6,0.2,1.2,0.3,1.8,0.4c0.6,0.1,1.2,0.1,1.7,0.1c0.8,0,1.4-0.2,1.8-0.6s0.6-0.9,0.6-1.4c0-0.3-0.1-0.6-0.3-0.9
			c-0.2-0.3-0.5-0.6-1-0.9c-0.5-0.3-1-0.6-1.5-0.9c-0.5-0.3-1-0.6-1.5-0.9c-0.6-0.3-1.1-0.8-1.4-1.4c-0.4-0.6-0.6-1.2-0.6-1.9
			c0-0.8,0.1-1.4,0.4-1.9s0.6-1,1.1-1.4c0.4-0.4,1-0.6,1.5-0.8C70.4,6,71,5.9,71.6,5.9c0.3,0,0.7,0,1.1,0.1c0.3,0,0.7,0,1,0.1
			c0.3,0.1,0.7,0.1,0.9,0.2c0.3,0.1,0.5,0.2,0.6,0.3c0.1,0.1,0.1,0.1,0.1,0.1s0,0.1,0,0.2l-0.2,1.7c0,0.2-0.1,0.3-0.1,0.3
			c-0.1,0-0.2,0-0.4,0c-0.3-0.1-0.7-0.2-1.2-0.3c-0.3,0-0.5-0.1-0.8-0.1s-0.6-0.1-1-0.1c-0.7,0-1.3,0.2-1.6,0.5
			c-0.3,0.3-0.5,0.8-0.5,1.2c0,0.3,0.2,0.6,0.5,0.9c0.3,0.3,0.8,0.6,1.3,0.9c0.6,0.3,1.1,0.5,1.5,0.8c0.5,0.3,0.8,0.5,1.1,0.7
			c0.6,0.5,1.1,1,1.5,1.5c0.3,0.5,0.5,1.2,0.5,2C76.1,18.5,75.5,19.7,74.3,20.6z"/>
		<path class="st0" d="M3.1,35.6v7.9c0,0.2-0.1,0.3-0.3,0.3H0.3c-0.2,0-0.3-0.1-0.3-0.3V23.9c0-0.1,0-0.2,0.1-0.2
			c0.1-0.1,0.1-0.1,0.2-0.1h5.4c2,0,3.6,0.5,4.7,1.4c1.2,1,1.7,2.5,1.7,4.5c0,1-0.2,1.9-0.5,2.6c-0.3,0.8-0.8,1.4-1.4,1.9
			c-0.5,0.6-1.2,1-2,1.3s-1.7,0.4-2.7,0.4H3.1V35.6z M3.1,26.4v6.4h2.2c1.2,0,2.1-0.3,2.8-0.8s1-1.4,1-2.5c0-1-0.3-1.8-0.8-2.3
			c-0.6-0.5-1.3-0.8-2.2-0.8C6.1,26.4,3.1,26.4,3.1,26.4z"/>
		<path class="st0" d="M22.2,43.8c-0.1,0-0.2,0-0.2,0s-0.1-0.1-0.1-0.2v-1.2c-0.4,0.6-1,1.1-1.7,1.4c-0.7,0.3-1.4,0.5-2.1,0.5
			s-1.4-0.1-2-0.3s-1.1-0.5-1.6-0.9c-0.4-0.4-0.8-0.9-1-1.5c-0.3-0.6-0.4-1.3-0.4-2c0-0.9,0.2-1.7,0.5-2.4s0.8-1.3,1.5-1.7
			c0.7-0.5,1.6-0.8,2.6-1c1.1-0.2,2.4-0.3,3.9-0.3c0-0.3,0-0.7-0.1-1s-0.2-0.6-0.4-0.9c-0.2-0.3-0.4-0.5-0.7-0.7
			c-0.3-0.2-0.7-0.3-1.2-0.3c-0.8,0-1.5,0.1-2.2,0.3c-0.7,0.2-1.3,0.5-1.8,0.9c-0.3,0.2-0.5,0.3-0.6,0.2c-0.1,0-0.1-0.1-0.1-0.3v-2
			c0-0.1,0-0.1,0-0.2s0-0.1,0-0.2c0.1-0.1,0.2-0.2,0.4-0.3c0.6-0.3,1.2-0.6,1.9-0.8c0.6-0.2,1.4-0.3,2.4-0.3c1.8,0,3.1,0.4,4,1.3
			s1.3,2.3,1.3,4.1v6.4c0,0.5,0,1,0,1.6c0,0.5,0,1,0.1,1.4c0,0.3-0.1,0.4-0.3,0.4H22.2z M17.4,37.4c-0.9,0.5-1.3,1.2-1.3,2.2
			c0,0.7,0.2,1.2,0.6,1.5s0.9,0.5,1.6,0.5c1,0,1.8-0.4,2.5-1.1c0.6-0.8,0.9-1.9,0.9-3.5v-0.3C19.7,36.7,18.3,36.9,17.4,37.4z"/>
		<path class="st0" d="M38,43.8c-0.1,0-0.2,0-0.2-0.1c-0.1-0.1-0.1-0.2-0.1-0.3v-8.5c0-1.3-0.2-2.2-0.6-2.8c-0.4-0.6-1-0.9-1.9-0.9
			c-1.2,0-2.1,0.3-2.6,1c-0.6,0.7-0.8,1.6-0.8,2.8v8.4c0,0.2-0.1,0.3-0.3,0.3h-2.2c-0.1,0-0.2,0-0.2-0.1C29,43.5,29,43.4,29,43.3
			V32.8c0-0.7,0-1.3,0-2c0-0.6,0-1.1-0.1-1.5c0-0.2,0.1-0.3,0.4-0.3h2.1c0.2,0,0.3,0.1,0.2,0.2v1c0.4-0.4,1-0.8,1.6-1.1
			c0.6-0.3,1.4-0.5,2.2-0.5c1.7,0,3,0.5,3.9,1.5s1.4,2.5,1.4,4.4v9c0,0.2-0.1,0.3-0.3,0.3H38z"/>
		<path class="st0" d="M52.3,43.6c-0.3,0.2-0.6,0.3-1.2,0.4c-0.5,0.1-1.1,0.2-1.8,0.2c-0.8,0-1.4-0.2-1.8-0.5
			c-0.4-0.3-0.8-0.7-1-1.1c-0.3-0.5-0.4-1-0.5-1.6c0-0.6,0-1.4,0-2.5v-6.7h-2.2c-0.1,0-0.2,0-0.2-0.1c-0.1-0.1-0.1-0.1-0.1-0.2v-2.1
			c0-0.1,0-0.2,0.1-0.2c0.1-0.1,0.1-0.1,0.2-0.1H46v-3.8c0-0.1,0-0.2,0.1-0.2c0.1-0.1,0.2-0.1,0.2-0.1h2.2c0.1,0,0.2,0,0.3,0.1
			s0.1,0.1,0.1,0.2V29h2.6c0.1,0,0.2,0,0.2,0.1c0.1,0.1,0.1,0.1,0.1,0.2v2.1c0,0.1,0,0.2-0.1,0.2c-0.1,0.1-0.1,0.1-0.2,0.1h-2.6v6.9
			c0,1.2,0,2,0.1,2.3s0.2,0.5,0.5,0.6s0.6,0.1,0.9,0.1c0.2,0,0.5-0.1,0.8-0.1c0.3-0.1,0.5-0.1,0.8-0.2c0.1,0,0.2,0,0.2,0
			s0.1,0.1,0.1,0.3l0.2,1.8C52.5,43.4,52.4,43.5,52.3,43.6z"/>
		<path class="st0" d="M61.9,31.7c-0.4-0.1-0.7-0.1-0.9-0.2c-0.3,0-0.5,0-0.7,0c-0.5,0.1-1,0.3-1.3,0.7c-0.3,0.3-0.6,0.8-0.8,1.2
			c-0.2,0.5-0.3,1-0.3,1.5c-0.1,0.5-0.1,1-0.1,1.5v7c0,0.3-0.1,0.4-0.3,0.4h-2.2c-0.2,0-0.3-0.1-0.3-0.4V32.6c0-0.6,0-1.1,0-1.7
			s0-1.1,0-1.5c0-0.2,0-0.3,0.1-0.3s0.1-0.1,0.3-0.1h2.2c0.1,0,0.2,0,0.2,0.1c0,0,0,0.1,0,0.2v1.2c0.1-0.2,0.3-0.4,0.5-0.7
			c0.2-0.2,0.4-0.4,0.7-0.6c0.2-0.2,0.5-0.3,0.7-0.4c0.3-0.1,0.5-0.2,0.7-0.2c0.3,0,0.6,0,0.9,0c0.3,0,0.6,0.1,0.9,0.3
			c0.1,0,0.1,0.1,0.2,0.2c0,0.1,0,0.2,0,0.2v2c0,0.1,0,0.2-0.1,0.2C62.2,31.7,62.1,31.7,61.9,31.7z"/>
		<path class="st0" d="M69,47.2c-0.6,0.5-1.4,0.8-2.4,0.8c-0.4,0-0.7,0-1-0.1c-0.3,0-0.6-0.1-0.8-0.2c-0.1,0-0.2-0.1-0.2-0.1
			c-0.1-0.1-0.1-0.1-0.1-0.3l0.2-1.8c0-0.2,0.1-0.3,0.3-0.2c0.3,0.1,0.5,0.1,0.8,0.1c0.2,0,0.4,0,0.6,0c0.3,0,0.5,0,0.7-0.1
			s0.3-0.2,0.4-0.3s0.1-0.3,0.2-0.5s0.2-0.4,0.3-0.7c0.1-0.2,0.2-0.5,0.3-0.8c0.1-0.3,0.2-0.5,0.3-0.8l-4.6-13
			c-0.1-0.2,0-0.3,0.2-0.3h2.5c0.2,0,0.3,0,0.3,0.1l3,8.9l3-8.9c0-0.1,0.1-0.1,0.3-0.1h2.5c0.2,0,0.3,0.1,0.2,0.3l-5.5,15.1
			C70.1,45.7,69.6,46.7,69,47.2z"/>
	</g>
</g>
</svg>
