<?xml version="1.0" encoding="utf-8"?>
<!-- Generator: Adobe Illustrator 22.1.0, SVG Export Plug-In . SVG Version: 6.00 Build 0)  -->
<svg version="1.1" id="레이어_1" xmlns="http://www.w3.org/2000/svg" xmlns:xlink="http://www.w3.org/1999/xlink" x="0px"
	 y="0px" viewBox="0 0 24.1 24.1" style="enable-background:new 0 0 24.1 24.1;" xml:space="preserve">
<style type="text/css">
	.st0{fill-rule:evenodd;clip-rule:evenodd;fill:#010201;}
	.st1{fill:#FFFFFF;}
	.st2{fill:#010201;}
</style>
<g>
	<circle class="st0" cx="12.2" cy="12.1" r="12"/>
	<g>
		<g>
			<path class="st1" d="M12.3,18.2c-0.5,0-1,0-1.5-0.1c-0.1,0-0.1,0-0.2,0c-1,0.7-2,1.4-3,2.1c-0.1,0.1-0.3,0.1-0.4,0.2
				c0,0-0.1,0-0.1,0.1c-0.2,0-0.3-0.1-0.2-0.2C6.9,20,6.9,19.7,7,19.4c0.2-0.7,0.4-1.4,0.6-2.1c0-0.1,0-0.1-0.1-0.1
				c-1-0.5-1.8-1.1-2.5-2c-0.7-0.8-1.2-1.8-1.3-2.8c-0.2-1.2,0-2.4,0.6-3.5C4.9,7.8,5.8,7,6.8,6.3C7.9,5.6,9,5.2,10.3,4.9
				c0.9-0.2,1.9-0.2,2.8-0.1C14.9,5,16.6,5.5,18,6.6c1,0.7,1.7,1.6,2.2,2.7c0.8,1.8,0.6,3.5-0.4,5.2c-0.6,1.1-1.6,1.8-2.6,2.5
				c-1,0.6-2.1,1-3.3,1.2C13.4,18.2,12.9,18.2,12.3,18.2z"/>
			<path class="st2" d="M16.3,11C16.3,11,16.3,11,16.3,11c0.5-0.5,0.9-0.9,1.3-1.3c0.2-0.2,0.4-0.2,0.5-0.1c0.2,0.1,0.3,0.3,0.2,0.5
				c0,0.1-0.1,0.1-0.1,0.2c-0.3,0.3-0.7,0.7-1,1c0,0,0,0.1,0,0.1c0.4,0.5,0.8,1,1.1,1.5c0.2,0.2,0.1,0.5-0.1,0.7
				c-0.2,0.2-0.5,0.2-0.7-0.1c-0.3-0.4-0.7-0.9-1-1.4c0,0,0,0,0,0c0,0-0.1-0.1-0.1-0.1c0,0-0.2,0.2-0.2,0.2c0,0.3,0,0.7,0,1
				c0,0.2-0.2,0.4-0.4,0.5c-0.2,0-0.4-0.1-0.5-0.3c0-0.1,0-0.1,0-0.2c0-1.1,0-2.2,0-3.4c0-0.3,0.2-0.5,0.5-0.5
				c0.3,0,0.5,0.2,0.5,0.5C16.2,10.3,16.2,10.6,16.3,11C16.2,11,16.2,11,16.3,11C16.2,11,16.3,11,16.3,11z"/>
			<path class="st2" d="M7,11.9c0-0.5,0-0.9,0-1.4c0-0.1,0-0.1-0.1-0.1c-0.2,0-0.4,0-0.7,0c-0.3,0-0.5-0.2-0.5-0.5
				c0-0.3,0.2-0.5,0.5-0.5c0.8,0,1.7,0,2.5,0c0.3,0,0.5,0.2,0.5,0.4c0,0.2-0.1,0.5-0.4,0.5c0,0-0.1,0-0.1,0c-0.2,0-0.4,0-0.7,0
				c-0.1,0-0.1,0-0.1,0.1c0,0.9,0,1.9,0,2.8c0,0.2-0.1,0.4-0.3,0.5C7.3,13.9,7,13.7,7,13.3C7,12.9,7,12.4,7,11.9z"/>
			<path class="st2" d="M12.5,11.6c0-0.6,0-1.1,0-1.7c0-0.3,0.2-0.5,0.5-0.5c0.2,0,0.5,0.1,0.5,0.4c0,0.1,0,0.1,0,0.2
				c0,0.9,0,1.8,0,2.7c0,0.1,0,0.1,0.1,0.1c0.3,0,0.6,0,1,0c0.2,0,0.5,0.2,0.5,0.4c0,0.2-0.2,0.5-0.4,0.5c-0.6,0-1.1,0-1.7,0
				c-0.2,0-0.4-0.2-0.4-0.5C12.5,12.8,12.5,12.2,12.5,11.6z"/>
			<path class="st2" d="M12.2,13c-0.2-0.5-0.4-1.1-0.6-1.6c-0.2-0.5-0.4-1-0.5-1.4c-0.1-0.3-0.4-0.5-0.8-0.5C10,9.6,9.8,9.7,9.7,10
				c-0.3,0.9-0.7,1.8-1,2.6c-0.1,0.2-0.2,0.4-0.2,0.6c-0.1,0.4,0,0.5,0.4,0.6c0.3,0,0.4-0.1,0.5-0.3c0.1-0.2,0.1-0.3,0.2-0.5
				c0,0,0-0.1,0.1-0.1c0.2,0,0.5,0,0.7,0c0.2,0,0.4,0,0.7,0c0.1,0,0.1,0,0.1,0.1c0.1,0.2,0.1,0.3,0.2,0.5c0.1,0.2,0.2,0.3,0.4,0.3
				c0.1,0,0.2,0,0.3-0.1c0.1,0,0.2-0.1,0.2-0.3C12.3,13.3,12.3,13.2,12.2,13z M10.3,12.1c-0.1,0-0.2,0-0.3,0c-0.1,0-0.1,0-0.1-0.1
				c0.1-0.4,0.3-0.7,0.4-1.1c0-0.1,0.1-0.2,0.1-0.3c0.2,0.5,0.3,0.9,0.5,1.4C10.7,12.1,10.5,12.1,10.3,12.1z"/>
		</g>
	</g>
</g>
</svg>
