<?xml version="1.0" encoding="utf-8"?>
<!-- Generator: Adobe Illustrator 22.1.0, SVG Export Plug-In . SVG Version: 6.00 Build 0)  -->
<svg version="1.1" id="레이어_1" xmlns="http://www.w3.org/2000/svg" xmlns:xlink="http://www.w3.org/1999/xlink" x="0px"
	 y="0px" viewBox="0 0 22.2 20.8" style="enable-background:new 0 0 22.2 20.8;" xml:space="preserve">
<style type="text/css">
	.st0{fill:#494949;}
</style>
<path class="st0" d="M11.1,20.8L10.3,20L2,11.6C0.2,9.8-0.3,7.2,0.7,4.9s3.1-3.7,5.6-3.7c2.6,0,4.1,1.6,4.8,2.4l0,0l0,0
	c0.7-0.8,2.2-2.4,4.8-2.4c2.5,0,4.6,1.4,5.6,3.7s0.5,4.9-1.3,6.7L11.1,20.8z M6.3,2.1c-2.1,0-3.8,1.2-4.6,3.1
	c-0.8,2-0.4,4.1,1.1,5.6l8.4,8.5l8.4-8.5c1.5-1.5,1.9-3.7,1.1-5.6C19.8,3.3,18,2.1,16,2.1c-2.2,0-3.4,1.3-4.1,2
	c-0.2,0.2-0.3,0.3-0.4,0.4l-0.3,0.2l-0.3-0.2c-0.1-0.1-0.3-0.2-0.4-0.4C9.7,3.5,8.5,2.1,6.3,2.1z"/>
</svg>
