<?xml version="1.0" encoding="utf-8"?>
<!-- Generator: Adobe Illustrator 22.1.0, SVG Export Plug-In . SVG Version: 6.00 Build 0)  -->
<svg version="1.1" id="레이어_1" xmlns="http://www.w3.org/2000/svg" xmlns:xlink="http://www.w3.org/1999/xlink" x="0px"
	 y="0px" viewBox="0 0 24 24" style="enable-background:new 0 0 24 24;" xml:space="preserve">
<style type="text/css">
	.st0{fill:#FFFFFF;}
	.st1{fill:#010201;}
	.st2{fill-rule:evenodd;clip-rule:evenodd;fill:#010201;}
</style>
<g>
	<g>
		<path class="st0" d="M-119.2,0.9v7.9c0,0.2-0.1,0.3-0.3,0.3h-2.5c-0.2,0.1-0.3-0.1-0.3-0.3v-19.6c0-0.1,0-0.1,0.1-0.2
			s0.1-0.1,0.2-0.1h5.4c2,0,3.6,0.5,4.7,1.5c1.2,1,1.7,2.5,1.7,4.5c0,1-0.2,1.9-0.5,2.6c-0.3,0.8-0.8,1.4-1.4,1.9s-1.3,0.9-2.1,1.2
			c-0.8,0.3-1.7,0.4-2.7,0.4L-119.2,0.9L-119.2,0.9z M-119.2-8.3v6.4h2.2c1.2,0,2.1-0.3,2.8-0.8c0.7-0.5,1-1.4,1-2.5
			c0-1-0.3-1.8-0.8-2.3c-0.6-0.5-1.3-0.8-2.2-0.8H-119.2z"/>
		<path class="st0" d="M-97,2.4c0,0.1,0,0.3-0.1,0.3c-0.1,0.1-0.2,0.1-0.3,0.1h-8.8c0.1,1.2,0.5,2.2,1.1,2.9
			c0.7,0.8,1.6,1.1,2.7,1.1c0.6,0,1.3-0.1,2-0.2c0.8-0.2,1.4-0.4,2.1-0.8c0.1-0.1,0.2-0.1,0.2,0S-98,6-98,6.1V8c0,0.2,0,0.3-0.1,0.4
			c-0.1,0.1-0.2,0.2-0.3,0.3c-0.5,0.3-1.2,0.5-1.9,0.6c-0.7,0.1-1.5,0.2-2.2,0.2c-2.2,0-3.9-0.7-5-2s-1.7-3.3-1.7-5.9
			c0-1,0.1-1.9,0.4-2.8c0.3-0.9,0.6-1.8,1.1-2.5s1.2-1.3,1.9-1.8c0.8-0.4,1.7-0.7,2.8-0.7s2,0.2,2.8,0.6c0.8,0.4,1.4,1,1.9,1.7
			s0.8,1.5,1,2.4s0.3,1.9,0.3,3c0,0.1,0,0.3,0,0.4C-97,2.2-97,2.3-97,2.4z M-102.9-3.5c-0.5,0-0.9,0.1-1.3,0.3
			c-0.4,0.2-0.7,0.5-1,0.8c-0.3,0.3-0.5,0.7-0.7,1.2c-0.2,0.4-0.3,0.9-0.4,1.3h6.1c0-0.4-0.1-0.8-0.2-1.2c-0.1-0.4-0.3-0.8-0.5-1.2
			c-0.2-0.4-0.5-0.7-0.9-0.9C-101.9-3.4-102.4-3.5-102.9-3.5z"/>
		<path class="st0" d="M-86.3,8.9c-0.3,0.2-0.7,0.3-1.2,0.4s-1.1,0.2-1.8,0.2c-0.8,0-1.4-0.2-1.8-0.5c-0.4-0.3-0.8-0.7-1-1.1
			c-0.3-0.5-0.4-1-0.5-1.6c-0.1-0.6-0.1-1.5-0.1-2.6v-6.6h-2.2c-0.1,0-0.2,0-0.2-0.1c-0.1-0.1-0.1-0.1-0.1-0.2v-2.2
			c0-0.1,0-0.2,0.1-0.2c0.1-0.1,0.1-0.1,0.2-0.1h2.2v-3.8c0-0.1,0-0.2,0.1-0.2c0.1-0.1,0.2-0.1,0.2-0.1h2.2c0.1,0,0.2,0,0.3,0.1
			c0.1,0.1,0.1,0.1,0.1,0.2v3.8h2.6c0.1,0,0.2,0,0.2,0.1c0.1,0.1,0.1,0.1,0.1,0.2v2.1c0,0.1,0,0.2-0.1,0.2C-87.1-3-87.1-3-87.2-3
			h-2.6v7c0,1.2,0,2,0.1,2.3s0.2,0.5,0.5,0.6S-88.6,7-88.3,7c0.2,0,0.5-0.1,0.8-0.1c0.3-0.1,0.5-0.1,0.8-0.2c0.1,0,0.2,0,0.2,0
			s0.1,0.1,0.1,0.3l0.2,1.8C-86.2,8.7-86.2,8.8-86.3,8.9z"/>
		<path class="st0" d="M-72.6,2.4c0,0.1,0,0.3-0.1,0.3c-0.1,0.1-0.2,0.1-0.3,0.1h-8.8c0.1,1.2,0.5,2.2,1.1,2.9
			c0.7,0.8,1.6,1.1,2.7,1.1c0.6,0,1.3-0.1,2-0.2c0.8-0.2,1.4-0.4,2.1-0.8c0.1-0.1,0.2-0.1,0.2,0s0.1,0.2,0.1,0.3V8
			c0,0.2,0,0.3-0.1,0.4c-0.1,0.1-0.2,0.2-0.3,0.3c-0.5,0.3-1.2,0.5-1.9,0.6s-1.5,0.2-2.2,0.2c-2.2,0-3.9-0.7-5-2
			c-1.1-1.3-1.7-3.3-1.7-5.9c0-1,0.1-1.9,0.4-2.8s0.6-1.8,1.1-2.5s1.2-1.3,1.9-1.8c0.8-0.4,1.7-0.7,2.8-0.7c1.1,0,2,0.2,2.8,0.6
			s1.4,1,1.9,1.7s0.8,1.5,1,2.4s0.3,1.9,0.3,3c0,0.1,0,0.3,0,0.4C-72.6,2.2-72.6,2.3-72.6,2.4z M-78.5-3.5c-0.5,0-0.9,0.1-1.3,0.3
			s-0.7,0.5-1,0.8s-0.5,0.7-0.7,1.2c-0.2,0.4-0.3,0.9-0.4,1.3h6.1c0-0.4-0.1-0.8-0.2-1.2c-0.1-0.4-0.3-0.8-0.5-1.2S-77-3-77.4-3.2
			C-77.5-3.4-78-3.5-78.5-3.5z"/>
		<path class="st0" d="M-62.1-3c-0.4-0.1-0.7-0.1-0.9-0.2c-0.3,0-0.5,0-0.7,0c-0.5,0.1-1,0.3-1.3,0.7c-0.3,0.3-0.6,0.8-0.8,1.2
			c-0.2,0.5-0.3,1-0.3,1.5c-0.1,0.5-0.1,1-0.1,1.5v7c0,0.3-0.1,0.4-0.3,0.4h-2.2C-68.9,9.1-69,9-69,8.7V-2.1c0-0.6,0-1.1,0-1.7
			s0-1.1,0-1.5c0-0.2,0-0.3,0.1-0.3s0.1-0.1,0.3-0.1h2.2c0.1,0,0.2,0,0.2,0.1c0,0,0,0.1,0,0.2v1.2c0.1-0.2,0.3-0.4,0.5-0.7
			c0.2-0.2,0.4-0.4,0.7-0.6c0.2-0.2,0.5-0.3,0.7-0.4C-64.2-6-63.9-6-63.7-6c0.3,0,0.6,0,0.9,0c0.3,0,0.6,0.1,0.9,0.3
			c0.1,0,0.1,0.1,0.2,0.2c0,0.1,0,0.2,0,0.2v2c0,0.1,0,0.2-0.1,0.2C-61.9-3-62-3-62.1-3z"/>
		<path class="st0" d="M-59.3-12c0.5,0,0.9,0.2,1.2,0.6c0.4,0.4,0.6,0.9,0.6,1.4c0.1,0.7,0,1.2-0.1,1.7s-0.4,0.9-0.7,1.4
			c-0.3,0.4-0.6,0.8-1,1.1c-0.4,0.3-0.8,0.5-1.3,0.6c-0.2,0.1-0.3,0.1-0.3-0.1v-1c0-0.1,0-0.2,0-0.3l0.1-0.1
			c0.3-0.1,0.6-0.4,0.8-0.6c0.2-0.3,0.3-0.6,0.4-1c-0.4-0.1-0.7-0.3-1-0.5c-0.3-0.3-0.5-0.7-0.5-1.1c0-0.6,0.2-1,0.5-1.4
			C-60.2-11.8-59.8-12-59.3-12z"/>
		<path class="st0" d="M-48,8.6c-1,0.6-2.1,1-3.4,1c-0.4,0-0.7,0-1.1-0.1c-0.4,0-0.8-0.1-1.1-0.1c-0.4-0.1-0.7-0.1-1-0.2
			s-0.5-0.1-0.7-0.2c-0.1,0-0.1-0.1-0.2-0.1c-0.1-0.1-0.1-0.2-0.1-0.3l0.2-1.7c0-0.2,0-0.3,0.1-0.3c0,0,0.2,0,0.3,0
			c0.6,0.2,1.2,0.3,1.8,0.4c0.6,0.1,1.2,0.1,1.7,0.1c0.8,0,1.4-0.2,1.8-0.6s0.6-0.9,0.6-1.4c0-0.3-0.1-0.6-0.3-0.9
			c-0.2-0.3-0.5-0.6-1-0.9c-0.5-0.3-1-0.6-1.5-0.9c-0.5-0.3-1-0.6-1.5-0.9c-0.6-0.3-1.1-0.8-1.4-1.4c-0.4-0.6-0.6-1.2-0.6-1.9
			c0-0.8,0.1-1.4,0.4-1.9s0.6-1,1.1-1.4c0.4-0.4,1-0.6,1.5-0.8c0.5-0.1,1.1-0.2,1.7-0.2c0.3,0,0.7,0,1.1,0.1c0.3,0,0.7,0,1,0.1
			s0.7,0.1,0.9,0.2c0.3,0.1,0.5,0.2,0.6,0.3C-47-5.3-47-5.3-47-5.3s0,0.1,0,0.2l-0.2,1.7c0,0.2-0.1,0.3-0.1,0.3c-0.1,0-0.2,0-0.4,0
			c-0.3-0.1-0.7-0.2-1.2-0.3c-0.3,0-0.5-0.1-0.8-0.1s-0.6-0.1-1-0.1c-0.7,0-1.3,0.2-1.6,0.5c-0.3,0.3-0.5,0.8-0.5,1.2
			c0,0.3,0.2,0.6,0.5,0.9c0.3,0.3,0.8,0.6,1.3,0.9c0.6,0.3,1.1,0.5,1.5,0.8c0.5,0.3,0.8,0.5,1.1,0.7c0.6,0.5,1.1,1,1.5,1.5
			c0.3,0.5,0.5,1.2,0.5,2C-46.2,6.5-46.8,7.7-48,8.6z"/>
		<path class="st0" d="M-119.2,23.6v7.9c0,0.2-0.1,0.3-0.3,0.3h-2.5c-0.2,0-0.3-0.1-0.3-0.3V11.9c0-0.1,0-0.2,0.1-0.2
			c0.1-0.1,0.1-0.1,0.2-0.1h5.4c2,0,3.6,0.5,4.7,1.4c1.2,1,1.7,2.5,1.7,4.5c0,1-0.2,1.9-0.5,2.6c-0.3,0.8-0.8,1.4-1.4,1.9
			c-0.5,0.6-1.2,1-2,1.3c-0.8,0.3-1.7,0.4-2.7,0.4h-2.4V23.6z M-119.2,14.4v6.4h2.2c1.2,0,2.1-0.3,2.8-0.8c0.7-0.5,1-1.4,1-2.5
			c0-1-0.3-1.8-0.8-2.3c-0.6-0.5-1.3-0.8-2.2-0.8C-116.2,14.4-119.2,14.4-119.2,14.4z"/>
		<path class="st0" d="M-100.1,31.8c-0.1,0-0.2,0-0.2,0s-0.1-0.1-0.1-0.2v-1.2c-0.4,0.6-1,1.1-1.7,1.4c-0.7,0.3-1.4,0.5-2.1,0.5
			s-1.4-0.1-2-0.3s-1.1-0.5-1.6-0.9c-0.4-0.4-0.8-0.9-1-1.5c-0.3-0.6-0.4-1.3-0.4-2c0-0.9,0.2-1.7,0.5-2.4s0.8-1.3,1.5-1.7
			c0.7-0.5,1.6-0.8,2.6-1c1.1-0.2,2.4-0.3,3.9-0.3c0-0.3,0-0.7-0.1-1s-0.2-0.6-0.4-0.9c-0.2-0.3-0.4-0.5-0.7-0.7
			c-0.3-0.2-0.7-0.3-1.2-0.3c-0.8,0-1.5,0.1-2.2,0.3c-0.7,0.2-1.3,0.5-1.8,0.9c-0.3,0.2-0.5,0.3-0.6,0.2c-0.1,0-0.1-0.1-0.1-0.3v-2
			c0-0.1,0-0.1,0-0.2s0-0.1,0-0.2c0.1-0.1,0.2-0.2,0.4-0.3c0.6-0.3,1.2-0.6,1.9-0.8c0.6-0.2,1.4-0.3,2.4-0.3c1.8,0,3.1,0.4,4,1.3
			s1.3,2.3,1.3,4.1v6.4c0,0.5,0,1,0,1.6c0,0.5,0,1,0.1,1.4c0,0.3-0.1,0.4-0.3,0.4H-100.1z M-104.9,25.4c-0.9,0.5-1.3,1.2-1.3,2.2
			c0,0.7,0.2,1.2,0.6,1.5c0.4,0.3,0.9,0.5,1.6,0.5c1,0,1.8-0.4,2.5-1.1c0.6-0.8,0.9-1.9,0.9-3.5v-0.3
			C-102.6,24.7-104,24.9-104.9,25.4z"/>
		<path class="st0" d="M-84.3,31.8c-0.1,0-0.2,0-0.2-0.1c-0.1-0.1-0.1-0.2-0.1-0.3v-8.5c0-1.3-0.2-2.2-0.6-2.8
			c-0.4-0.6-1-0.9-1.9-0.9c-1.2,0-2.1,0.3-2.6,1c-0.6,0.7-0.8,1.6-0.8,2.8v8.4c0,0.2-0.1,0.3-0.3,0.3H-93c-0.1,0-0.2,0-0.2-0.1
			c-0.1-0.1-0.1-0.2-0.1-0.3V20.8c0-0.7,0-1.3,0-2c0-0.6,0-1.1-0.1-1.5c0-0.2,0.1-0.3,0.4-0.3h2.1c0.2,0,0.3,0.1,0.2,0.2v1
			c0.4-0.4,1-0.8,1.6-1.1c0.6-0.3,1.4-0.5,2.2-0.5c1.7,0,3,0.5,3.9,1.5s1.4,2.5,1.4,4.4v9c0,0.2-0.1,0.3-0.3,0.3H-84.3z"/>
		<path class="st0" d="M-70,31.6c-0.3,0.2-0.6,0.3-1.2,0.4c-0.5,0.1-1.1,0.2-1.8,0.2c-0.8,0-1.4-0.2-1.8-0.5s-0.8-0.7-1-1.1
			c-0.3-0.5-0.4-1-0.5-1.6c0-0.6,0-1.4,0-2.5v-6.7h-2.2c-0.1,0-0.2,0-0.2-0.1c-0.1-0.1-0.1-0.1-0.1-0.2v-2.1c0-0.1,0-0.2,0.1-0.2
			c0.1-0.1,0.1-0.1,0.2-0.1h2.2v-3.8c0-0.1,0-0.2,0.1-0.2C-76.1,13-76,13-76,13h2.2c0.1,0,0.2,0,0.3,0.1c0.1,0.1,0.1,0.1,0.1,0.2V17
			h2.6c0.1,0,0.2,0,0.2,0.1c0.1,0.1,0.1,0.1,0.1,0.2v2.1c0,0.1,0,0.2-0.1,0.2c-0.1,0.1-0.1,0.1-0.2,0.1h-2.6v6.9c0,1.2,0,2,0.1,2.3
			c0.1,0.3,0.2,0.5,0.5,0.6c0.3,0.1,0.6,0.1,0.9,0.1c0.2,0,0.5-0.1,0.8-0.1c0.3-0.1,0.5-0.1,0.8-0.2c0.1,0,0.2,0,0.2,0
			s0.1,0.1,0.1,0.3l0.2,1.8C-69.8,31.4-69.9,31.5-70,31.6z"/>
		<path class="st0" d="M-60.4,19.7c-0.4-0.1-0.7-0.1-0.9-0.2c-0.3,0-0.5,0-0.7,0c-0.5,0.1-1,0.3-1.3,0.7c-0.3,0.3-0.6,0.8-0.8,1.2
			c-0.2,0.5-0.3,1-0.3,1.5c-0.1,0.5-0.1,1-0.1,1.5v7c0,0.3-0.1,0.4-0.3,0.4H-67c-0.2,0-0.3-0.1-0.3-0.4V20.6c0-0.6,0-1.1,0-1.7
			s0-1.1,0-1.5c0-0.2,0-0.3,0.1-0.3c0.1,0,0.1-0.1,0.3-0.1h2.2c0.1,0,0.2,0,0.2,0.1c0,0,0,0.1,0,0.2v1.2c0.1-0.2,0.3-0.4,0.5-0.7
			c0.2-0.2,0.4-0.4,0.7-0.6c0.2-0.2,0.5-0.3,0.7-0.4c0.3-0.1,0.5-0.2,0.7-0.2c0.3,0,0.6,0,0.9,0c0.3,0,0.6,0.1,0.9,0.3
			c0.1,0,0.1,0.1,0.2,0.2c0,0.1,0,0.2,0,0.2v2c0,0.1,0,0.2-0.1,0.2C-60.1,19.7-60.2,19.7-60.4,19.7z"/>
		<path class="st0" d="M-53.3,35.2c-0.6,0.5-1.4,0.8-2.4,0.8c-0.4,0-0.7,0-1-0.1c-0.3,0-0.6-0.1-0.8-0.2c-0.1,0-0.2-0.1-0.2-0.1
			c-0.1-0.1-0.1-0.1-0.1-0.3l0.2-1.8c0-0.2,0.1-0.3,0.3-0.2c0.3,0.1,0.5,0.1,0.8,0.1c0.2,0,0.4,0,0.6,0c0.3,0,0.5,0,0.7-0.1
			s0.3-0.2,0.4-0.3s0.1-0.3,0.2-0.5s0.2-0.4,0.3-0.7c0.1-0.2,0.2-0.5,0.3-0.8c0.1-0.3,0.2-0.5,0.3-0.8l-4.6-13
			c-0.1-0.2,0-0.3,0.2-0.3h2.5c0.2,0,0.3,0,0.3,0.1l3,8.9l3-8.9c0-0.1,0.1-0.1,0.3-0.1h2.5c0.2,0,0.3,0.1,0.2,0.3l-5.5,15.1
			C-52.2,33.7-52.7,34.7-53.3,35.2z"/>
	</g>
</g>
<g>
	<circle class="st1" cx="-69.8" cy="-1.7" r="12"/>
	<path class="st0" d="M-62.1-5.6c-0.2-0.7-0.7-1.2-1.4-1.4c-1.2-0.3-6.3-0.3-6.3-0.3s-5,0-6.3,0.3c-0.7,0.2-1.2,0.7-1.4,1.4
		c-0.3,1.2-0.3,3.9-0.3,3.9s0,2.6,0.3,3.9c0.2,0.7,0.7,1.2,1.4,1.4c1.2,0.3,6.3,0.3,6.3,0.3s5,0,6.3-0.3c0.7-0.2,1.2-0.7,1.4-1.4
		c0.3-1.2,0.3-3.9,0.3-3.9S-61.8-4.3-62.1-5.6z M-71.4,0.7v-4.8l4.2,2.4L-71.4,0.7z"/>
</g>
<g>
	<circle class="st2" cx="12" cy="12" r="12"/>
	<g>
		<g id="FULL_COLOR_ICON_4_">
			<g id="TYPE_A_4_">
				<g>
					<path class="st0" d="M20.1,10.8c0-3.7-3.7-6.6-8.2-6.6c-4.5,0-8.2,3-8.2,6.6c0,3.3,2.9,6,6.8,6.5c0.3,0.1,0.6,0.2,0.7,0.4
						c0.1,0.2,0.1,0.5,0,0.7c0,0-0.1,0.6-0.1,0.7c0,0.2-0.2,0.8,0.7,0.4c0.9-0.4,4.7-2.8,6.4-4.7h0C19.6,13.6,20.1,12.3,20.1,10.8"
						/>
					<g>
						<path class="st1" d="M10.3,9.1H9.7c-0.1,0-0.2,0.1-0.2,0.2v3.6c0,0.1,0.1,0.2,0.2,0.2h0.6c0.1,0,0.2-0.1,0.2-0.2V9.2
							C10.5,9.1,10.4,9.1,10.3,9.1"/>
						<path class="st1" d="M14.2,9.1h-0.6c-0.1,0-0.2,0.1-0.2,0.2v2.1l-1.6-2.2c0,0,0,0,0,0c0,0,0,0,0,0c0,0,0,0,0,0c0,0,0,0,0,0
							c0,0,0,0,0,0c0,0,0,0,0,0c0,0,0,0,0,0c0,0,0,0,0,0c0,0,0,0,0,0c0,0,0,0,0,0c0,0,0,0,0,0c0,0,0,0,0,0c0,0,0,0,0,0c0,0,0,0,0,0
							c0,0,0,0,0,0c0,0,0,0,0,0c0,0,0,0,0,0c0,0,0,0,0,0c0,0,0,0,0,0h-0.6c-0.1,0-0.2,0.1-0.2,0.2v3.6c0,0.1,0.1,0.2,0.2,0.2h0.6
							c0.1,0,0.2-0.1,0.2-0.2v-2.1l1.6,2.2c0,0,0,0,0,0c0,0,0,0,0,0c0,0,0,0,0,0c0,0,0,0,0,0c0,0,0,0,0,0c0,0,0,0,0,0c0,0,0,0,0,0
							c0,0,0,0,0,0c0,0,0,0,0,0c0,0,0,0,0,0h0.6c0.1,0,0.2-0.1,0.2-0.2V9.2C14.4,9.1,14.3,9.1,14.2,9.1"/>
						<path class="st1" d="M8.9,12.1H7.4V9.2c0-0.1-0.1-0.2-0.2-0.2H6.6c-0.1,0-0.2,0.1-0.2,0.2v3.6v0c0,0,0,0.1,0,0.1c0,0,0,0,0,0
							c0,0,0,0,0,0c0,0,0.1,0,0.1,0h0h2.3c0.1,0,0.2-0.1,0.2-0.2v-0.6C9.1,12.1,9,12.1,8.9,12.1"/>
						<path class="st1" d="M17.4,10c0.1,0,0.2-0.1,0.2-0.2V9.2c0-0.1-0.1-0.2-0.2-0.2h-2.3h0c0,0-0.1,0-0.1,0c0,0,0,0,0,0
							c0,0,0,0,0,0c0,0,0,0.1,0,0.1v0v3.6v0c0,0,0,0.1,0,0.1c0,0,0,0,0,0c0,0,0,0,0,0c0,0,0.1,0,0.1,0h0h2.3c0.1,0,0.2-0.1,0.2-0.2
							v-0.6c0-0.1-0.1-0.2-0.2-0.2h-1.6v-0.6h1.6c0.1,0,0.2-0.1,0.2-0.2v-0.6c0-0.1-0.1-0.2-0.2-0.2h-1.6V10H17.4z"/>
					</g>
				</g>
			</g>
		</g>
	</g>
</g>
</svg>
