<?xml version="1.0" encoding="utf-8"?>
<!-- Generator: Adobe Illustrator 22.1.0, SVG Export Plug-In . SVG Version: 6.00 Build 0)  -->
<svg version="1.1" xmlns="http://www.w3.org/2000/svg" xmlns:xlink="http://www.w3.org/1999/xlink" x="0px" y="0px"
	 viewBox="0 0 34 34" style="enable-background:new 0 0 34 34;" xml:space="preserve">
<style type="text/css">
	.st0{fill:#FFFFFF;}
	.st1{fill-rule:evenodd;clip-rule:evenodd;fill:#FFFFFF;}
	.st2{fill:#333333;}
	.st3{fill-rule:evenodd;clip-rule:evenodd;}
	.st4{fill:#D53692;}
	.st5{fill:#006EF5;}
	.st6{fill:#FCBB45;}
	.st7{fill:#8F39CE;}
	.st8{fill:#00D95F;}
	.st9{fill:#FF0000;}
	.st10{fill:#33CCFF;}
	.st11{fill:url(#SVGID_1_);}
	.st12{fill:#337FFF;}
	.st13{fill-rule:evenodd;clip-rule:evenodd;fill:#EE1D52;}
	.st14{fill-rule:evenodd;clip-rule:evenodd;fill:#69C9D0;}
	.st15{fill:url(#SVGID_2_);}
	.st16{fill:url(#SVGID_3_);}
	.st17{fill:url(#SVGID_4_);}
	.st18{fill-rule:evenodd;clip-rule:evenodd;fill:#FF0000;}
	.st19{fill-rule:evenodd;clip-rule:evenodd;fill:#00D95F;}
	.st20{fill:none;stroke:#999999;stroke-miterlimit:10;}
	.st21{fill:none;stroke:#999999;stroke-width:0.5;stroke-miterlimit:10;stroke-dasharray:12;}
</style>
<g id="BACKGROUND">
</g>
<g id="ELEMENTS">
	<g>
		<path d="M-824-119.3c2.8-1.8,4.7-5,4.7-8.5c0-5.6-4.6-10.2-10.2-10.2s-10.2,4.6-10.2,10.2c0,3.6,1.9,6.7,4.7,8.5
			c-5.8,2.2-9.9,7.8-9.9,14.3c0,2.8,2.2,5,5,5h20.7c2.8,0,5-2.2,5-5C-814.2-111.5-818.3-117.1-824-119.3z M-837-127.8
			c0-4.2,3.4-7.5,7.5-7.5s7.5,3.4,7.5,7.5c0,4.2-3.4,7.5-7.5,7.5S-837-123.7-837-127.8z M-819.2-102.6h-20.7c-1.3,0-2.4-1.1-2.4-2.4
			c0-7,5.7-12.7,12.7-12.7c7,0,12.7,5.7,12.7,12.7C-816.8-103.7-817.9-102.6-819.2-102.6z"/>
		<g>
			<path d="M-821.8-83.6h-15.5c-3.1,0-5.7,2.5-5.7,5.7v27c0,3.1,2.5,5.7,5.7,5.7h15.5c3.1,0,5.7-2.6,5.7-5.7v-27
				C-816.1-81.1-818.6-83.6-821.8-83.6z M-837.3-81h15.5c1.7,0,3.1,1.4,3.1,3.1v21.7h-21.6v-21.7C-840.3-79.6-839-81-837.3-81z
				 M-821.8-47.8h-15.5c-1.7,0-3.1-1.4-3.1-3.1v-2.8h21.6v2.8C-818.7-49.2-820.1-47.8-821.8-47.8z"/>
			<path d="M-829.9-77.2c0.6,0,1-0.5,1-1c0-0.6-0.5-1-1-1c-0.6,0-1,0.5-1,1C-830.9-77.7-830.4-77.2-829.9-77.2z"/>
			<path d="M-829.9-52c-0.6,0-1,0.5-1,1c0,0.6,0.5,1,1,1c0.6,0,1-0.5,1-1C-828.8-51.6-829.3-52-829.9-52z"/>
		</g>
		<path d="M-810.8-10.7l-14-16.1c-1.2-1.3-2.9-2.1-4.6-2.1c-1.8,0-3.5,0.8-4.6,2.1l-14,16.1c-0.3,0.4-0.4,0.9-0.2,1.4
			c0.2,0.5,0.7,0.8,1.2,0.8h2.4V7.9c0,0.7,0.6,1.3,1.3,1.3h28c0.7,0,1.3-0.6,1.3-1.3V-8.5h2.4c0.5,0,1-0.3,1.2-0.8
			C-810.4-9.7-810.5-10.3-810.8-10.7z M-832.2-25c0.7-0.8,1.6-1.2,2.7-1.2c1,0,2,0.4,2.7,1.2l12.2,13.9h-29.6L-832.2-25z
			 M-816.8,6.6h-25.3V-8.5h25.3V6.6z"/>
		<path d="M-816,29.8h-27c-3,0-5.5,2.5-5.5,5.5v18.9c0,3,2.5,5.5,5.5,5.5h27c3,0,5.5-2.5,5.5-5.5V35.3
			C-810.5,32.3-813,29.8-816,29.8z M-816,32.4c0.2,0,0.4,0,0.7,0.1l-11.4,12.9c-0.7,0.8-1.7,1.2-2.8,1.2c-1.1,0-2.1-0.5-2.8-1.2
			l-11.4-12.9c0.2,0,0.4-0.1,0.7-0.1H-816z M-813.1,54.2c0,1.6-1.3,2.9-2.9,2.9h-27c-1.6,0-2.9-1.3-2.9-2.9V35.3
			c0-0.4,0.1-0.8,0.2-1.1l11.4,13c1.2,1.4,2.9,2.1,4.7,2.1c1.8,0,3.5-0.8,4.7-2.1l11.4-13c0.1,0.3,0.2,0.7,0.2,1.1V54.2z"/>
		<path d="M-815.4,99.1l-25-18.2c-0.9-0.6-2-0.7-3-0.2c-1,0.5-1.5,1.5-1.5,2.5l0,31c0,1.2,0.6,2.3,1.6,2.9c0.5,0.3,1.2,0.5,1.8,0.5
			c0.5,0,1.1-0.1,1.5-0.4c0.1-0.1,0.3-0.2,0.4-0.3l8.5-9.2l5.1,10c0.2,0.5,0.7,0.7,1.2,0.7c0.2,0,0.4,0,0.6-0.1
			c0.6-0.3,0.9-1.1,0.6-1.8l-5.1-10.1l12.5-1.3c0.2,0,0.3-0.1,0.5-0.1c1.1-0.5,1.8-1.6,1.8-2.8C-814,100.9-814.5,99.8-815.4,99.1z
			 M-816.9,102.4l-13.9,1.5c-0.3,0-0.6,0.2-0.8,0.4l-9.7,10.5c-0.3,0.1-0.5,0-0.6-0.1c-0.1-0.1-0.4-0.3-0.4-0.7l0-31
			c0,0,0-0.1,0.1-0.2c0,0,0.1,0,0.1,0c0.1,0,0.1,0,0.1,0l25,18.2c0.3,0.2,0.3,0.6,0.3,0.7C-816.7,102-816.7,102.2-816.9,102.4z"/>
		<g>
			<g>
				<path d="M-829.5,172.8L-829.5,172.8c-0.4,0-0.7-0.2-1-0.4c-0.6-0.6-13.7-14.8-13.7-22.6c0-8.1,6.6-14.7,14.7-14.7
					s14.7,6.6,14.7,14.7c0,7.8-13.1,22-13.7,22.6C-828.8,172.6-829.1,172.8-829.5,172.8z M-829.5,137.7c-6.6,0-12,5.4-12,12
					c0,5.2,8,15.2,12,19.8c4.1-4.6,12-14.6,12-19.8C-817.5,143.1-822.9,137.7-829.5,137.7z"/>
			</g>
			<g>
				<path d="M-829.5,155.7c-3.6,0-6.6-3-6.6-6.6c0-3.6,3-6.6,6.6-6.6c3.6,0,6.6,3,6.6,6.6C-822.9,152.7-825.9,155.7-829.5,155.7z
					 M-829.5,145.1c-2.2,0-4,1.8-4,4c0,2.2,1.8,4,4,4c2.2,0,4-1.8,4-4C-825.5,146.9-827.3,145.1-829.5,145.1z"/>
			</g>
		</g>
		<path d="M-829.5,189.5c-10.5,0-19,8.5-19,19c0,10.5,8.5,19,19,19c10.5,0,19-8.5,19-19C-810.5,198-819,189.5-829.5,189.5z
			 M-813.2,207.2h-7.1c-0.2-5.9-1.6-11-3.7-14.1C-818.1,195.2-813.7,200.7-813.2,207.2z M-829.5,224.9c-3,0-6.3-6.1-6.5-15.1h13.1
			C-823.3,218.7-826.5,224.9-829.5,224.9z M-836.1,207.2c0.3-8.9,3.6-15.1,6.5-15.1c3,0,6.3,6.1,6.5,15.1H-836.1z M-835,193.1
			c-2.1,3.2-3.5,8.2-3.7,14.1h-7.1C-845.3,200.7-841,195.2-835,193.1z M-845.8,209.8h7.1c0.2,5.9,1.6,11,3.7,14.1
			C-841,221.8-845.3,216.3-845.8,209.8z M-824,223.9c2.1-3.2,3.5-8.2,3.7-14.1h7.1C-813.7,216.3-818.1,221.8-824,223.9z"/>
	</g>
	<g>
		<g>
			<g>
				<ellipse transform="matrix(0.9231 -0.3845 0.3845 0.9231 -9.1783 -304.1876)" cx="-765.4" cy="-129.1" rx="7.6" ry="7.6"/>
			</g>
			<g>
				<path d="M-765.4-119L-765.4-119c-7.7,0-14,6.3-14,14l0,0c0,2,1.6,3.7,3.7,3.7h20.7c2,0,3.7-1.6,3.7-3.7l0,0
					C-751.4-112.7-757.7-119-765.4-119z"/>
			</g>
		</g>
		<g>
			<path d="M-753.3-56.3v-21.7c0-2.4-2-4.4-4.4-4.4h-15.5c-2.4,0-4.4,2-4.4,4.4v21.7H-753.3z M-765.4-79.6c0.7,0,1.3,0.6,1.3,1.3
				c0,0.7-0.6,1.3-1.3,1.3c-0.7,0-1.3-0.6-1.3-1.3C-766.7-79-766.1-79.6-765.4-79.6z"/>
			<path d="M-777.5-53.7v2.8c0,2.4,2,4.4,4.4,4.4h15.5c2.4,0,4.4-2,4.4-4.4v-2.8H-777.5z M-765.4-49c-0.7,0-1.3-0.6-1.3-1.3
				c0-0.7,0.6-1.3,1.3-1.3c0.7,0,1.3,0.6,1.3,1.3C-764.1-49.5-764.7-49-765.4-49z"/>
		</g>
		<g>
			<g>
				<path d="M-769.1-25.9l-12.5,14.4c-0.6,0.7-0.1,1.7,0.8,1.7h3.7h25.7h1.4c0.9,0,1.4-1.1,0.8-1.7l-12.5-14.4
					C-763.7-28.1-767.1-28.1-769.1-25.9z"/>
			</g>
			<g>
				<path d="M-751.4-7.2v14c0,0.6-0.5,1-1,1h-25.9c-0.6,0-1-0.5-1-1v-14H-751.4z"/>
			</g>
		</g>
		<g>
			<path d="M-780.5,31.5l12.3,13.9c0.7,0.8,1.7,1.2,2.8,1.2c1.1,0,2.1-0.5,2.8-1.2l12.1-13.7c0.1-0.1,0.2-0.2,0.3-0.3
				c-0.5-0.2-1.1-0.4-1.7-0.4h-27C-779.5,31.1-780,31.2-780.5,31.5C-780.5,31.5-780.5,31.5-780.5,31.5z"/>
			<path d="M-748.4,33.1c-0.1,0.1-0.1,0.3-0.2,0.4l-12.1,13.7c-1.2,1.4-2.9,2.1-4.7,2.1c-1.8,0-3.5-0.8-4.7-2.1l-12.3-13.9
				c0,0,0-0.1-0.1-0.1c-0.4,0.6-0.6,1.4-0.6,2.2v18.9c0,2.3,1.9,4.2,4.2,4.2h27c2.3,0,4.2-1.9,4.2-4.2V35.3
				C-747.7,34.5-748,33.7-748.4,33.1z"/>
		</g>
		<path d="M-752.1,99.5l-25-18.2c-1-0.7-2.4,0-2.4,1.2l0,31c0,1.6,1.6,2.6,3,1.9l8.8-9.6l5.7,11.3c0.2,0.5,0.7,0.7,1.2,0.7
			c0.2,0,0.4,0,0.6-0.1c0.6-0.3,0.9-1.1,0.6-1.8l-5.8-11.4l13-1.4C-751,102.3-750.9,100.4-752.1,99.5z"/>
		<g>
			<path d="M-765.4,145.4c-2.2,0-4,1.8-4,4c0,2.2,1.8,4,4,4c2.2,0,4-1.8,4-4C-761.4,147.1-763.2,145.4-765.4,145.4z"/>
			<path d="M-765.4,136.6c-7.4,0-13.4,6-13.4,13.4c0,6.3,9.7,17.7,12.6,20.9c0.4,0.5,1.2,0.5,1.6,0c2.9-3.2,12.6-14.6,12.6-20.9
				C-752.1,142.6-758,136.6-765.4,136.6z M-765.4,155.9c-3.6,0-6.6-3-6.6-6.6c0-3.6,3-6.6,6.6-6.6c3.6,0,6.6,3,6.6,6.6
				C-758.8,153-761.8,155.9-765.4,155.9z"/>
		</g>
		<g>
			<path d="M-772,209.8c0.3,8.9,3.6,15.1,6.5,15.1c3,0,6.3-6.1,6.5-15.1H-772z"/>
			<path d="M-765.4,192.1c-3,0-6.3,6.1-6.5,15.1h13.1C-759.2,198.2-762.4,192.1-765.4,192.1z"/>
			<path d="M-756.2,207.2h8.5c-0.6-7.8-6.2-14.2-13.6-15.9C-758.5,194.1-756.5,200-756.2,207.2z"/>
			<path d="M-756.2,209.8c-0.2,7.2-2.2,13.1-5.2,15.9c7.4-1.7,13.1-8.1,13.6-15.9H-756.2z"/>
			<path d="M-774.6,209.8h-8.5c0.6,7.8,6.2,14.2,13.6,15.9C-772.4,222.9-774.4,217-774.6,209.8z"/>
			<path d="M-774.6,207.2c0.2-7.2,2.2-13.1,5.2-15.9c-7.4,1.7-13.1,8.1-13.6,15.9H-774.6z"/>
		</g>
	</g>
	<g>
		<g>
			<ellipse transform="matrix(0.9221 -0.3868 0.3868 0.9221 -8.5659 -280.562)" cx="-701.3" cy="-119" rx="17.7" ry="17.7"/>
			<g>
				<g>
					<path class="st0" d="M-696.3-127.3c0,2.8-2.3,5-5,5c-2.8,0-5-2.3-5-5c0-2.8,2.3-5,5-5C-698.5-132.4-696.3-130.1-696.3-127.3z"
						/>
				</g>
				<g>
					<path class="st0" d="M-701.3-120.6L-701.3-120.6c-5.2,0-9.3,4.2-9.3,9.3l0,0c0,1.4,1.1,2.5,2.5,2.5h13.8c1.4,0,2.5-1.1,2.5-2.5
						l0,0C-692-116.4-696.1-120.6-701.3-120.6z"/>
				</g>
			</g>
		</g>
		<g>
			<circle cx="-701.3" cy="-64.4" r="17.7"/>
			<g>
				<path class="st0" d="M-693.3-59v-14.3c0-1.6-1.3-2.9-2.9-2.9h-10.2c-1.6,0-2.9,1.3-2.9,2.9V-59H-693.3z M-701.3-74.4
					c0.5,0,0.9,0.4,0.9,0.9s-0.4,0.9-0.9,0.9c-0.5,0-0.9-0.4-0.9-0.9S-701.8-74.4-701.3-74.4z"/>
				<path class="st0" d="M-709.3-57.3v1.8c0,1.6,1.3,2.9,2.9,2.9h10.2c1.6,0,2.9-1.3,2.9-2.9v-1.8H-709.3z M-701.3-54.2
					c-0.5,0-0.9-0.4-0.9-0.9c0-0.5,0.4-0.9,0.9-0.9c0.5,0,0.9,0.4,0.9,0.9C-700.4-54.6-700.8-54.2-701.3-54.2z"/>
			</g>
		</g>
		<g>
			<circle cx="-701.3" cy="-9.8" r="17.7"/>
			<g>
				<g>
					<path class="st0" d="M-703.7-22.1l-8.3,9.6c-0.4,0.5-0.1,1.2,0.5,1.2h2.4h17.1h0.9c0.6,0,0.9-0.7,0.5-1.2l-8.3-9.6
						C-700.2-23.6-702.4-23.6-703.7-22.1z"/>
				</g>
				<g>
					<path class="st0" d="M-692-9.6v9.3c0,0.4-0.3,0.7-0.7,0.7h-17.2c-0.4,0-0.7-0.3-0.7-0.7v-9.3H-692z"/>
				</g>
			</g>
		</g>
		<g>
			<circle cx="-701.3" cy="44.7" r="17.7"/>
			<g>
				<path class="st0" d="M-711.4,35.9l8.2,9.3c0.5,0.5,1.1,0.8,1.8,0.8c0.7,0,1.4-0.3,1.8-0.8l8.1-9.1c0.1-0.1,0.1-0.1,0.2-0.2
					c-0.3-0.1-0.7-0.2-1.1-0.2h-18C-710.7,35.7-711.1,35.7-711.4,35.9C-711.4,35.9-711.4,35.9-711.4,35.9z"/>
				<path class="st0" d="M-689.9,37c0,0.1-0.1,0.2-0.2,0.3l-8.1,9.1c-0.8,0.9-1.9,1.4-3.2,1.4c-1.2,0-2.4-0.5-3.2-1.4l-8.2-9.3
					c0,0,0,0,0-0.1c-0.3,0.4-0.4,0.9-0.4,1.4V51c0,1.5,1.2,2.8,2.8,2.8h18c1.5,0,2.8-1.2,2.8-2.8V38.4
					C-689.5,37.9-689.7,37.4-689.9,37z"/>
			</g>
		</g>
		<g>
			<ellipse transform="matrix(0.9221 -0.3868 0.3868 0.9221 -93.0248 -263.564)" cx="-701.3" cy="99.3" rx="17.7" ry="17.7"/>
			<path class="st0" d="M-690.9,99.4L-706.6,88c-0.6-0.5-1.5,0-1.5,0.8l0,19.5c0,1,1,1.6,1.9,1.2l5.5-6l3.6,7.1
				c0.1,0.3,0.4,0.5,0.7,0.5c0.1,0,0.3,0,0.4-0.1c0.4-0.2,0.6-0.7,0.4-1.1l-3.6-7.1l8.2-0.9C-690.2,101.2-690.1,100-690.9,99.4z"/>
		</g>
		<g>
			<circle cx="-701.3" cy="153.9" r="17.7"/>
			<g>
				<path class="st0" d="M-701.3,142.1c-5,0-9.1,4.1-9.1,9.1c0,4.3,6.6,12.1,8.6,14.3c0.3,0.3,0.8,0.3,1.1,0c2-2.2,8.6-10,8.6-14.3
					C-692.2,146.2-696.3,142.1-701.3,142.1z M-701.3,155.3c-2.5,0-4.5-2-4.5-4.5c0-2.5,2-4.5,4.5-4.5c2.5,0,4.5,2,4.5,4.5
					C-696.8,153.3-698.8,155.3-701.3,155.3z"/>
			</g>
		</g>
		<g>
			<circle cx="-701.3" cy="208.5" r="17.7"/>
			<g>
				<path class="st0" d="M-705.7,209.4c0.2,6,2.4,10.1,4.4,10.1c2,0,4.2-4.1,4.4-10.1H-705.7z"/>
				<path class="st0" d="M-701.3,197.5c-2,0-4.2,4.1-4.4,10.1h8.8C-697.1,201.6-699.3,197.5-701.3,197.5z"/>
				<path class="st0" d="M-695.2,207.6h5.7c-0.4-5.2-4.1-9.5-9.1-10.7C-696.7,198.8-695.3,202.8-695.2,207.6z"/>
				<path class="st0" d="M-695.2,209.4c-0.1,4.8-1.5,8.8-3.5,10.7c5-1.2,8.7-5.4,9.1-10.7H-695.2z"/>
				<path class="st0" d="M-707.4,209.4h-5.7c0.4,5.2,4.1,9.5,9.1,10.7C-706,218.1-707.3,214.2-707.4,209.4z"/>
				<path class="st0" d="M-707.4,207.6c0.1-4.8,1.5-8.8,3.5-10.7c-5,1.2-8.7,5.4-9.1,10.7H-707.4z"/>
			</g>
		</g>
	</g>
	<g>
		<circle cx="-525" cy="-9.8" r="17.7"/>
		<path class="st0" d="M-515.2-15.9c-0.6,0.3-1.3,0.4-2,0.6c0.3-0.1,0.8-0.6,1-0.9c0.3-0.4,0.5-0.7,0.6-1.2c0,0,0-0.1,0-0.1
			c0,0-0.1,0-0.1,0c-0.7,0.4-1.5,0.7-2.3,0.9c-0.1,0-0.1,0-0.2,0c-0.1-0.1-0.1-0.1-0.2-0.2c-0.3-0.3-0.7-0.5-1.1-0.7
			c-0.5-0.2-1.1-0.3-1.7-0.3c-0.6,0-1.1,0.2-1.6,0.5c-0.5,0.3-1,0.6-1.3,1.1c-0.4,0.5-0.6,1-0.8,1.6c-0.1,0.6-0.1,1.1,0,1.7
			c0,0.1,0,0.1-0.1,0.1c-3.2-0.5-5.8-1.6-7.9-4c-0.1-0.1-0.1-0.1-0.2,0c-0.9,1.4-0.5,3.7,0.7,4.8c0.2,0.1,0.3,0.3,0.5,0.4
			c-0.1,0-0.8-0.1-1.5-0.4c-0.1-0.1-0.1,0-0.1,0.1c0,0.2,0,0.3,0,0.5c0.2,1.4,1.2,2.7,2.5,3.2c0.2,0.1,0.3,0.1,0.5,0.2
			c-0.3,0.1-0.6,0.1-1.5,0c-0.1,0-0.2,0-0.1,0.1c0.7,1.8,2.1,2.3,3.2,2.6c0.1,0,0.3,0,0.4,0.1c0,0,0,0,0,0c-0.4,0.5-1.6,0.9-2.2,1.1
			c-1,0.4-2.2,0.5-3.3,0.4c-0.2,0-0.2,0-0.3,0c0,0,0,0.1,0.1,0.1c0.2,0.1,0.5,0.3,0.7,0.4c0.7,0.4,1.4,0.7,2.2,0.9
			c3.9,1.1,8.4,0.3,11.3-2.6c2.3-2.3,3.1-5.5,3.1-8.7c0-0.1,0.1-0.2,0.2-0.3c0.6-0.5,1.1-1,1.5-1.6
			C-515.1-15.7-515.1-15.8-515.2-15.9C-515.1-15.9-515.1-15.9-515.2-15.9C-515.1-15.9-515.1-15.9-515.2-15.9z"/>
	</g>
	<g>
		<g>
			<path d="M-507.3-119c0-9.8-7.9-17.7-17.7-17.7c-9.8,0-17.7,7.9-17.7,17.7c0,8.8,6.5,16.1,14.9,17.5v-12.4h-4.5v-5.1h4.5v-3.9
				c0-4.4,2.6-6.9,6.7-6.9c1.9,0,4,0.3,4,0.3v4.4h-2.2c-2.2,0-2.9,1.4-2.9,2.8v3.3h4.9l-0.8,5.1h-4.1v12.4
				C-513.8-102.9-507.3-110.2-507.3-119z"/>
			<path class="st0" d="M-518.1-113.9l0.8-5.1h-4.9v-3.3c0-1.4,0.7-2.8,2.9-2.8h2.2v-4.4c0,0-2-0.3-4-0.3c-4,0-6.7,2.4-6.7,6.9v3.9
				h-4.5v5.1h4.5v12.4c0.9,0.1,1.8,0.2,2.8,0.2c0.9,0,1.9-0.1,2.8-0.2v-12.4H-518.1z"/>
		</g>
	</g>
	<g>
		<circle cx="-525" cy="99.3" r="17.7"/>
		<path class="st0" d="M-515.8,97.3c-0.2,0-0.4,0-0.5,0c-2,0-3.9-1-4.9-2.7v9.1c0,3.7-3,6.7-6.7,6.7c-3.7,0-6.7-3-6.7-6.7
			c0-3.7,3-6.7,6.7-6.7l0,0c0.1,0,0.3,0,0.4,0v3.3c-0.1,0-0.3,0-0.4,0c-1.9,0-3.4,1.5-3.4,3.4c0,1.9,1.5,3.4,3.4,3.4
			c1.9,0,3.6-1.5,3.6-3.4l0-15.5h3.2c0.3,2.8,2.6,5.1,5.4,5.3L-515.8,97.3"/>
	</g>
	<g>
		<path d="M-525,27.1c-9.8,0-17.7,7.9-17.7,17.7c0,7.2,4.3,13.4,10.5,16.1c0-0.5,0-1,0-1.5c0.1-1.7,0.3-2.3,2.5-11.6
			c0-0.1,0-0.3-0.1-0.4c-0.5-1.4-0.6-2.9-0.2-4.4c1-3.2,4.6-3.4,5.2-0.8c0.4,1.6-0.6,3.7-1.4,6.9c-0.7,2.6,2.4,4.4,5,2.5
			c2.4-1.7,3.3-5.9,3.2-8.9c-0.3-5.9-6.8-7.2-10.9-5.3c-4.7,2.2-5.8,8-3.7,10.7c0.3,0.3,0.5,0.5,0.4,0.9c-0.1,0.5-0.3,1.1-0.4,1.6
			c-0.1,0.4-0.4,0.5-0.8,0.4c-0.8-0.3-1.4-0.8-2-1.5c-1.8-2.2-2.3-6.7,0.1-10.4c2.6-4.2,7.6-5.8,12.1-5.3c5.4,0.6,8.8,4.3,9.4,8.4
			c0.3,1.9,0.1,6.6-2.6,9.9c-3.1,3.8-8,4-10.3,1.7c-0.2-0.2-0.3-0.4-0.5-0.6c0,0.1,0,0.2-0.1,0.2c-1.1,4.3-1.2,5.3-2.4,7.3
			c-0.2,0.3-0.4,0.6-0.6,0.9c1.7,0.5,3.4,0.8,5.3,0.8c9.8,0,17.7-7.9,17.7-17.7C-507.3,35-515.2,27.1-525,27.1z"/>
		<path class="st0" d="M-527.3,53.5c0-0.1,0-0.1,0.1-0.2c0.2,0.2,0.3,0.4,0.5,0.6c2.3,2.3,7.3,2.1,10.3-1.7c2.7-3.3,2.9-8,2.6-9.9
			c-0.6-4.2-4-7.8-9.4-8.4c-4.5-0.5-9.4,1.2-12.1,5.3c-2.4,3.7-1.9,8.2-0.1,10.4c0.5,0.7,1.2,1.2,2,1.5c0.4,0.2,0.7,0,0.8-0.4
			c0.1-0.5,0.3-1.1,0.4-1.6c0.1-0.3-0.1-0.6-0.4-0.9c-2.1-2.7-1.1-8.5,3.7-10.7c4.1-1.9,10.6-0.6,10.9,5.3c0.2,3-0.8,7.1-3.2,8.9
			c-2.6,1.9-5.7,0-5-2.5c0.8-3.1,1.8-5.3,1.4-6.9c-0.6-2.6-4.2-2.4-5.2,0.8c-0.5,1.5-0.4,2.9,0.2,4.4c0,0.1,0.1,0.2,0.1,0.4
			c-2.2,9.3-2.4,9.9-2.5,11.6c0,0.5,0,1,0,1.5c0.6,0.3,1.3,0.5,2,0.8c0.2-0.3,0.4-0.6,0.6-0.9C-528.6,58.7-528.4,57.8-527.3,53.5z"
			/>
	</g>
	<g>
		<ellipse transform="matrix(0.6543 -0.7562 0.7562 0.6543 -297.8541 -343.8033)" cx="-525" cy="153.9" rx="17.7" ry="17.7"/>
		<path class="st0" d="M-534.6,163.9l1.5-5.5c-0.8-1.5-1.3-3.2-1.3-4.9c0-5.6,4.6-10.2,10.2-10.2c5.6,0,10.2,4.6,10.2,10.2
			c0,5.6-4.6,10.2-10.2,10.2c-1.7,0-3.3-0.4-4.8-1.2L-534.6,163.9z M-528.8,160.4l0.3,0.2c1.3,0.8,2.7,1.2,4.2,1.2
			c4.5,0,8.2-3.7,8.2-8.2c0-4.5-3.7-8.2-8.2-8.2c-4.5,0-8.2,3.7-8.2,8.2c0,1.5,0.4,3,1.2,4.3l0.2,0.4l-0.8,3.1L-528.8,160.4z"/>
		<path class="st1" d="M-520.4,154.9c-0.4-0.3-1-0.5-1.5-0.3c-0.4,0.2-0.6,0.7-0.9,1c-0.1,0.2-0.3,0.2-0.5,0.1
			c-1.4-0.6-2.5-1.5-3.3-2.8c-0.1-0.2-0.1-0.4,0.1-0.6c0.2-0.3,0.5-0.6,0.6-1c0.1-0.4-0.1-0.8-0.3-1.1c-0.2-0.4-0.4-1-0.8-1.3
			c-0.4-0.2-0.9-0.1-1.3,0.2c-0.6,0.5-0.9,1.3-0.9,2c0,0.2,0,0.4,0.1,0.6c0.1,0.5,0.4,1,0.6,1.4c0.2,0.3,0.4,0.7,0.6,1
			c0.8,1,1.7,1.9,2.8,2.6c0.5,0.3,1.1,0.6,1.7,0.8c0.7,0.2,1.3,0.5,2,0.3c0.8-0.1,1.5-0.6,1.8-1.4c0.1-0.2,0.1-0.5,0.1-0.7
			C-519.4,155.4-520,155.2-520.4,154.9z"/>
	</g>
	<circle class="st2" cx="17" cy="17" r="17"/>
	<path class="st0" d="M26.1,14.6c0-2.3-1.8-4.1-4.1-4.1H11.6c-2.3,0-4.1,1.8-4.1,4.1v4.9c0,2.3,1.8,4.1,4.1,4.1H22
		c2.3,0,4.1-1.8,4.1-4.1V14.6z M20,17.4l-4.7,2.3c-0.2,0.1-0.8,0-0.8-0.2v-4.8c0-0.2,0.6-0.3,0.8-0.2l4.5,2.4
		C20,17,20.2,17.3,20,17.4z"/>
	<g>
		<g>
			<g>
				<path d="M-579.7-75.9c-1.1,0-2.1,0.9-2.1,2.1c0,1.1,0.9,2.1,2.1,2.1c1.1,0,2.1-0.9,2.1-2.1C-577.7-74.9-578.6-75.9-579.7-75.9z"
					/>
				<path d="M-589-73.2c-4.8,0-8.7,3.9-8.7,8.7c0,4.8,3.9,8.7,8.7,8.7c4.8,0,8.7-3.9,8.7-8.7C-580.2-69.3-584.2-73.2-589-73.2z
					 M-589-58.9c-3.1,0-5.6-2.5-5.6-5.6c0-3.1,2.5-5.6,5.6-5.6c3.1,0,5.6,2.5,5.6,5.6C-583.4-61.4-585.9-58.9-589-58.9z"/>
				<path d="M-582-46.8h-14.1c-5.9,0-10.6-4.8-10.6-10.6v-14.1c0-5.9,4.8-10.6,10.6-10.6h14.1c5.9,0,10.6,4.8,10.6,10.6v14.1
					C-571.4-51.6-576.2-46.8-582-46.8z M-596.2-78.8c-4,0-7.3,3.3-7.3,7.3v14.1c0,4,3.3,7.3,7.3,7.3h14.1c4,0,7.3-3.3,7.3-7.3v-14.1
					c0-4-3.3-7.3-7.3-7.3H-596.2z"/>
			</g>
		</g>
		<path d="M-580.9-116.9l1-6.4h-6.1v-4.2c0-1.8,0.9-3.5,3.6-3.5h2.8v-5.5c0,0-2.5-0.4-5-0.4c-5.1,0-8.4,3.1-8.4,8.6v4.9h-5.6v6.4
			h5.6v15.5h6.9v-15.5H-580.9z"/>
		<path d="M-567.8-23.3c-1.4,0.6-2.9,1-4.3,1.2c0.7-0.1,1.7-1.4,2.1-1.9c0.6-0.8,1.1-1.7,1.4-2.6c0-0.1,0.1-0.2,0-0.2
			c-0.1,0-0.2,0-0.2,0c-1.6,0.9-3.3,1.5-5.2,2c-0.1,0-0.3,0-0.4-0.1c-0.2-0.2-0.3-0.3-0.5-0.5c-0.8-0.6-1.6-1.2-2.5-1.5
			c-1.2-0.5-2.5-0.7-3.8-0.6c-1.3,0.1-2.5,0.4-3.6,1c-1.1,0.6-2.1,1.4-2.9,2.4c-0.8,1-1.4,2.2-1.7,3.5c-0.3,1.2-0.3,2.5-0.1,3.7
			c0,0.2,0,0.2-0.2,0.2c-7.1-1.1-12.9-3.6-17.7-9c-0.2-0.2-0.3-0.2-0.5,0c-2.1,3.1-1.1,8.1,1.5,10.6c0.3,0.3,0.7,0.7,1.1,1
			c-0.1,0-1.9-0.2-3.4-1c-0.2-0.1-0.3-0.1-0.3,0.2c0,0.3,0,0.6,0.1,1c0.4,3.2,2.6,6.1,5.6,7.2c0.4,0.2,0.8,0.3,1.1,0.3
			c-0.7,0.2-1.4,0.3-3.4,0.1c-0.2,0-0.3,0.1-0.2,0.3c1.5,4,4.7,5.2,7,5.9c0.3,0.1,0.6,0.1,1,0.1c0,0,0,0-0.1,0.1
			c-0.8,1.2-3.5,2.1-4.8,2.5c-2.3,0.8-4.9,1.2-7.3,0.9c-0.4-0.1-0.5-0.1-0.6,0c-0.1,0.1,0,0.2,0.1,0.3c0.5,0.3,1,0.6,1.5,0.9
			c1.6,0.8,3.2,1.5,4.9,2c8.8,2.4,18.7,0.6,25.2-5.9c5.2-5.1,7-12.2,7-19.3c0-0.3,0.3-0.4,0.5-0.6c1.3-1,2.4-2.2,3.4-3.6
			c0.2-0.3,0.2-0.6,0.2-0.7c0,0,0,0,0,0C-567.6-23.4-567.6-23.4-567.8-23.3z"/>
		<path d="M-573.7,95.9c-0.3,0-0.6,0-0.9,0c-3.2,0-6.3-1.6-8.1-4.4v14.8c0,6.1-4.9,11-11,11c-6.1,0-11-4.9-11-11c0-6.1,4.9-11,11-11
			l0,0c0.2,0,0.5,0,0.7,0v5.4c-0.2,0-0.4-0.1-0.7-0.1c-3.1,0-5.6,2.5-5.6,5.6c0,3.1,2.5,5.6,5.6,5.6c3.1,0,5.8-2.4,5.8-5.5l0.1-25.2
			h5.2c0.5,4.6,4.2,8.3,8.9,8.6L-573.7,95.9"/>
		<path class="st3" d="M-591.3,50.1c0,0.1-0.1,0.2-0.1,0.3c-1.3,5.1-1.4,6.2-2.8,8.6c-0.6,1.1-1.4,2.2-2.1,3.2
			c-0.1,0.1-0.2,0.3-0.4,0.2c-0.2,0-0.2-0.2-0.2-0.4c-0.2-1.5-0.3-3.1-0.3-4.7c0.1-2,0.3-2.7,2.9-13.8c0-0.2,0-0.3-0.1-0.5
			c-0.6-1.7-0.8-3.4-0.2-5.2c1.2-3.8,5.5-4.1,6.2-0.9c0.5,1.9-0.8,4.4-1.7,8.1c-0.8,3.1,2.8,5.2,5.9,3c2.8-2.1,3.9-7,3.7-10.5
			c-0.4-7-8.1-8.5-12.9-6.2c-5.6,2.6-6.8,9.5-4.3,12.6c0.3,0.4,0.6,0.6,0.5,1.1c-0.2,0.6-0.3,1.3-0.5,1.9c-0.1,0.5-0.5,0.6-1,0.4
			c-0.9-0.4-1.7-1-2.3-1.7c-2.1-2.6-2.7-7.9,0.1-12.3c3.1-4.9,9-6.9,14.3-6.3c6.3,0.7,10.4,5.1,11.1,10c0.3,2.2,0.1,7.8-3.1,11.7
			c-3.6,4.5-9.5,4.8-12.2,2C-591,50.6-591.1,50.4-591.3,50.1z"/>
		<g>
			<path d="M-606.7,171.6l2.5-9.5c-1.4-2.6-2.2-5.5-2.2-8.4c0-9.6,7.8-17.5,17.5-17.5c9.6,0,17.5,7.8,17.5,17.5
				c0,9.6-7.8,17.5-17.5,17.5c-2.9,0-5.7-0.7-8.3-2.1L-606.7,171.6z M-596.8,165.5l0.6,0.4c2.2,1.3,4.7,2,7.2,2
				c7.8,0,14.2-6.4,14.2-14.2c0-7.8-6.4-14.2-14.2-14.2c-7.8,0-14.2,6.4-14.2,14.2c0,2.6,0.7,5.1,2.1,7.3l0.4,0.6l-1.4,5.3
				L-596.8,165.5z"/>
			<path class="st3" d="M-582.4,156.1c-0.7-0.4-1.7-0.9-2.5-0.6c-0.7,0.3-1.1,1.3-1.5,1.8c-0.2,0.3-0.5,0.3-0.8,0.2
				c-2.4-1-4.3-2.6-5.7-4.8c-0.2-0.3-0.2-0.6,0.1-0.9c0.4-0.5,0.9-1,1-1.7c0.1-0.6-0.2-1.4-0.5-2c-0.3-0.7-0.7-1.8-1.5-2.2
				c-0.7-0.4-1.6-0.2-2.2,0.3c-1,0.8-1.5,2.2-1.5,3.5c0,0.4,0.1,0.7,0.1,1.1c0.2,0.9,0.6,1.7,1.1,2.4c0.3,0.6,0.7,1.1,1.1,1.7
				c1.3,1.8,2.9,3.3,4.8,4.5c0.9,0.6,2,1.1,3,1.4c1.2,0.4,2.2,0.8,3.5,0.6c1.3-0.3,2.6-1.1,3.2-2.4c0.2-0.4,0.2-0.8,0.1-1.2
				C-580.6,157-581.8,156.5-582.4,156.1z"/>
		</g>
		<path d="M-571.1,203.8c0-4.4-3.5-7.9-7.9-7.9h-20.2c-4.4,0-7.9,3.5-7.9,7.9v9.4c0,4.4,3.5,7.9,7.9,7.9h20.2c4.4,0,7.9-3.5,7.9-7.9
			V203.8z M-583,209.2l-9,4.5c-0.4,0.2-1.6-0.1-1.6-0.5V204c0-0.4,1.2-0.7,1.6-0.5l8.7,4.7C-583,208.5-582.6,209-583,209.2z"/>
	</g>
	<g>
		<path class="st4" d="M-1272.8-119.3c2.8-1.8,4.7-5,4.7-8.5c0-5.6-4.6-10.2-10.2-10.2c-5.6,0-10.2,4.6-10.2,10.2
			c0,3.6,1.9,6.7,4.7,8.5c-5.8,2.2-9.9,7.8-9.9,14.3c0,2.8,2.2,5,5,5h20.7c2.8,0,5-2.2,5-5C-1262.9-111.5-1267-117.1-1272.8-119.3z
			 M-1285.8-127.8c0-4.2,3.4-7.5,7.5-7.5c4.2,0,7.5,3.4,7.5,7.5c0,4.2-3.4,7.5-7.5,7.5C-1282.4-120.3-1285.8-123.7-1285.8-127.8z
			 M-1267.9-102.6h-20.7c-1.3,0-2.4-1.1-2.4-2.4c0-7,5.7-12.7,12.7-12.7c7,0,12.7,5.7,12.7,12.7
			C-1265.5-103.7-1266.6-102.6-1267.9-102.6z"/>
		<g>
			<path class="st5" d="M-1270.5-83.6h-15.5c-3.1,0-5.7,2.5-5.7,5.7v27c0,3.1,2.6,5.7,5.7,5.7h15.5c3.1,0,5.7-2.6,5.7-5.7v-27
				C-1264.8-81.1-1267.3-83.6-1270.5-83.6z M-1286-81h15.5c1.7,0,3.1,1.4,3.1,3.1v21.7h-21.6v-21.7C-1289-79.6-1287.7-81-1286-81z
				 M-1270.5-47.8h-15.5c-1.7,0-3.1-1.4-3.1-3.1v-2.8h21.6v2.8C-1267.4-49.2-1268.8-47.8-1270.5-47.8z"/>
			<path class="st5" d="M-1278.6-77.2c0.6,0,1-0.5,1-1c0-0.6-0.5-1-1-1c-0.6,0-1,0.5-1,1C-1279.6-77.7-1279.2-77.2-1278.6-77.2z"/>
			<path class="st5" d="M-1278.6-52c-0.6,0-1,0.5-1,1c0,0.6,0.5,1,1,1c0.6,0,1-0.5,1-1C-1277.5-51.6-1278-52-1278.6-52z"/>
		</g>
		<path class="st6" d="M-1259.5-10.7l-14-16.1c-1.2-1.3-2.9-2.1-4.6-2.1c-1.8,0-3.5,0.8-4.6,2.1l-14,16.1c-0.3,0.4-0.4,0.9-0.2,1.4
			c0.2,0.5,0.7,0.8,1.2,0.8h2.4V7.9c0,0.7,0.6,1.3,1.3,1.3h28c0.7,0,1.3-0.6,1.3-1.3V-8.5h2.4c0.5,0,1-0.3,1.2-0.8
			C-1259.1-9.7-1259.2-10.3-1259.5-10.7z M-1280.9-25c0.7-0.8,1.6-1.2,2.7-1.2c1,0,2,0.4,2.7,1.2l12.2,13.9h-29.6L-1280.9-25z
			 M-1265.6,6.6h-25.3V-8.5h25.3V6.6z"/>
		<path class="st7" d="M-1264.7,29.8h-27c-3,0-5.5,2.5-5.5,5.5v18.9c0,3,2.5,5.5,5.5,5.5h27c3,0,5.5-2.5,5.5-5.5V35.3
			C-1259.2,32.3-1261.7,29.8-1264.7,29.8z M-1264.7,32.4c0.2,0,0.4,0,0.7,0.1l-11.4,12.9c-0.7,0.8-1.7,1.2-2.8,1.2
			c-1.1,0-2.1-0.5-2.8-1.2l-11.4-12.9c0.2,0,0.4-0.1,0.7-0.1H-1264.7z M-1261.8,54.2c0,1.6-1.3,2.9-2.9,2.9h-27
			c-1.6,0-2.9-1.3-2.9-2.9V35.3c0-0.4,0.1-0.8,0.2-1.1l11.4,13c1.2,1.4,2.9,2.1,4.7,2.1c1.8,0,3.5-0.8,4.7-2.1l11.4-13
			c0.1,0.3,0.2,0.7,0.2,1.1V54.2z"/>
		<path class="st8" d="M-1264.2,99.1l-25-18.2c-0.9-0.6-2-0.7-3-0.2c-1,0.5-1.5,1.5-1.5,2.5l0,31c0,1.2,0.6,2.3,1.6,2.9
			c0.5,0.3,1.2,0.5,1.8,0.5c0.5,0,1.1-0.1,1.5-0.4c0.1-0.1,0.3-0.2,0.4-0.3l8.5-9.2l5.1,10c0.2,0.5,0.7,0.7,1.2,0.7
			c0.2,0,0.4,0,0.6-0.1c0.6-0.3,0.9-1.1,0.6-1.8l-5.1-10.1l12.5-1.3c0.2,0,0.3-0.1,0.5-0.1c1.1-0.5,1.8-1.6,1.8-2.8
			C-1262.7,100.9-1263.2,99.8-1264.2,99.1z M-1265.7,102.4l-13.9,1.5c-0.3,0-0.6,0.2-0.8,0.4l-9.7,10.5c-0.3,0.1-0.5,0-0.6-0.1
			c-0.1-0.1-0.4-0.3-0.4-0.7l0-31c0,0,0-0.1,0.1-0.2c0,0,0.1,0,0.1,0c0.1,0,0.1,0,0.1,0l25,18.2c0.3,0.2,0.3,0.6,0.3,0.7
			C-1265.4,102-1265.4,102.2-1265.7,102.4z"/>
		<g>
			<g>
				<path class="st9" d="M-1278.2,172.8L-1278.2,172.8c-0.4,0-0.7-0.2-1-0.4c-0.6-0.6-13.7-14.8-13.7-22.6c0-8.1,6.6-14.7,14.7-14.7
					s14.7,6.6,14.7,14.7c0,7.8-13.1,22-13.7,22.6C-1277.5,172.6-1277.9,172.8-1278.2,172.8z M-1278.2,137.7c-6.6,0-12,5.4-12,12
					c0,5.2,8,15.2,12,19.8c4.1-4.6,12-14.6,12-19.8C-1266.2,143.1-1271.6,137.7-1278.2,137.7z"/>
			</g>
			<g>
				<path class="st9" d="M-1278.2,155.7c-3.6,0-6.6-3-6.6-6.6c0-3.6,3-6.6,6.6-6.6c3.6,0,6.6,3,6.6,6.6
					C-1271.6,152.7-1274.6,155.7-1278.2,155.7z M-1278.2,145.1c-2.2,0-4,1.8-4,4c0,2.2,1.8,4,4,4c2.2,0,4-1.8,4-4
					C-1274.2,146.9-1276,145.1-1278.2,145.1z"/>
			</g>
		</g>
		<path class="st10" d="M-1278.2,189.5c-10.5,0-19,8.5-19,19c0,10.5,8.5,19,19,19c10.5,0,19-8.5,19-19
			C-1259.2,198-1267.7,189.5-1278.2,189.5z M-1261.9,207.2h-7.1c-0.2-5.9-1.6-11-3.7-14.1C-1266.8,195.2-1262.4,200.7-1261.9,207.2z
			 M-1278.2,224.9c-3,0-6.3-6.1-6.5-15.1h13.1C-1272,218.7-1275.3,224.9-1278.2,224.9z M-1284.8,207.2c0.3-8.9,3.6-15.1,6.5-15.1
			c3,0,6.3,6.1,6.5,15.1H-1284.8z M-1283.7,193.1c-2.1,3.2-3.5,8.2-3.7,14.1h-7.1C-1294,200.7-1289.7,195.2-1283.7,193.1z
			 M-1294.5,209.8h7.1c0.2,5.9,1.6,11,3.7,14.1C-1289.7,221.8-1294,216.3-1294.5,209.8z M-1272.7,223.9c2.1-3.2,3.5-8.2,3.7-14.1
			h7.1C-1262.4,216.3-1266.8,221.8-1272.7,223.9z"/>
	</g>
	<g>
		<g>
			<g>
				
					<ellipse transform="matrix(0.2298 -0.9732 0.9732 0.2298 -809.4951 -1281.1144)" class="st4" cx="-1214.1" cy="-129.1" rx="7.6" ry="7.6"/>
			</g>
			<g>
				<path class="st4" d="M-1214.1-119L-1214.1-119c-7.7,0-14,6.3-14,14l0,0c0,2,1.6,3.7,3.7,3.7h20.7c2,0,3.7-1.6,3.7-3.7l0,0
					C-1200.1-112.7-1206.4-119-1214.1-119z"/>
			</g>
		</g>
		<g>
			<path class="st5" d="M-1202-56.3v-21.7c0-2.4-2-4.4-4.4-4.4h-15.5c-2.4,0-4.4,2-4.4,4.4v21.7H-1202z M-1214.1-79.6
				c0.7,0,1.3,0.6,1.3,1.3c0,0.7-0.6,1.3-1.3,1.3c-0.7,0-1.3-0.6-1.3-1.3C-1215.4-79-1214.8-79.6-1214.1-79.6z"/>
			<path class="st5" d="M-1226.3-53.7v2.8c0,2.4,2,4.4,4.4,4.4h15.5c2.4,0,4.4-2,4.4-4.4v-2.8H-1226.3z M-1214.1-49
				c-0.7,0-1.3-0.6-1.3-1.3c0-0.7,0.6-1.3,1.3-1.3c0.7,0,1.3,0.6,1.3,1.3C-1212.8-49.5-1213.4-49-1214.1-49z"/>
		</g>
		<g>
			<g>
				<path class="st6" d="M-1217.8-25.9l-12.5,14.4c-0.6,0.7-0.1,1.7,0.8,1.7h3.7h25.7h1.4c0.9,0,1.4-1.1,0.8-1.7l-12.5-14.4
					C-1212.4-28.1-1215.8-28.1-1217.8-25.9z"/>
			</g>
			<g>
				<path class="st6" d="M-1200.1-7.2v14c0,0.6-0.5,1-1,1h-25.9c-0.6,0-1-0.5-1-1v-14H-1200.1z"/>
			</g>
		</g>
		<g>
			<path class="st7" d="M-1229.2,31.5l12.3,13.9c0.7,0.8,1.7,1.2,2.8,1.2c1.1,0,2.1-0.5,2.8-1.2l12.1-13.7c0.1-0.1,0.2-0.2,0.3-0.3
				c-0.5-0.2-1.1-0.4-1.7-0.4h-27C-1228.2,31.1-1228.8,31.2-1229.2,31.5C-1229.2,31.5-1229.2,31.5-1229.2,31.5z"/>
			<path class="st7" d="M-1197.1,33.1c-0.1,0.1-0.1,0.3-0.2,0.4l-12.1,13.7c-1.2,1.4-2.9,2.1-4.7,2.1c-1.8,0-3.5-0.8-4.7-2.1
				l-12.3-13.9c0,0,0-0.1-0.1-0.1c-0.4,0.6-0.6,1.4-0.6,2.2v18.9c0,2.3,1.9,4.2,4.2,4.2h27c2.3,0,4.2-1.9,4.2-4.2V35.3
				C-1196.4,34.5-1196.7,33.7-1197.1,33.1z"/>
		</g>
		<path class="st8" d="M-1200.8,99.5l-25-18.2c-1-0.7-2.4,0-2.4,1.2l0,31c0,1.6,1.6,2.6,3,1.9l8.8-9.6l5.7,11.3
			c0.2,0.5,0.7,0.7,1.2,0.7c0.2,0,0.4,0,0.6-0.1c0.6-0.3,0.9-1.1,0.6-1.8l-5.8-11.4l13-1.4C-1199.7,102.3-1199.6,100.4-1200.8,99.5z
			"/>
		<g>
			<path class="st9" d="M-1214.1,145.4c-2.2,0-4,1.8-4,4c0,2.2,1.8,4,4,4c2.2,0,4-1.8,4-4C-1210.1,147.1-1211.9,145.4-1214.1,145.4z
				"/>
			<path class="st9" d="M-1214.1,136.6c-7.4,0-13.4,6-13.4,13.4c0,6.3,9.7,17.7,12.6,20.9c0.4,0.5,1.2,0.5,1.6,0
				c2.9-3.2,12.6-14.6,12.6-20.9C-1200.8,142.6-1206.8,136.6-1214.1,136.6z M-1214.1,155.9c-3.6,0-6.6-3-6.6-6.6
				c0-3.6,3-6.6,6.6-6.6c3.6,0,6.6,3,6.6,6.6C-1207.5,153-1210.5,155.9-1214.1,155.9z"/>
		</g>
		<g>
			<path class="st10" d="M-1220.7,209.8c0.3,8.9,3.6,15.1,6.5,15.1c3,0,6.3-6.1,6.5-15.1H-1220.7z"/>
			<path class="st10" d="M-1214.1,192.1c-3,0-6.3,6.1-6.5,15.1h13.1C-1207.9,198.2-1211.2,192.1-1214.1,192.1z"/>
			<path class="st10" d="M-1205,207.2h8.5c-0.6-7.8-6.2-14.2-13.6-15.9C-1207.2,194.1-1205.2,200-1205,207.2z"/>
			<path class="st10" d="M-1205,209.8c-0.2,7.2-2.2,13.1-5.2,15.9c7.4-1.7,13.1-8.1,13.6-15.9H-1205z"/>
			<path class="st10" d="M-1223.3,209.8h-8.5c0.6,7.8,6.2,14.2,13.6,15.9C-1221.1,222.9-1223.1,217-1223.3,209.8z"/>
			<path class="st10" d="M-1223.3,207.2c0.2-7.2,2.2-13.1,5.2-15.9c-7.4,1.7-13.1,8.1-13.6,15.9H-1223.3z"/>
		</g>
	</g>
	<g>
		<g>
			
				<ellipse transform="matrix(0.9403 -0.3404 0.3404 0.9403 -28.1784 -398.6045)" class="st4" cx="-1150" cy="-119" rx="17.7" ry="17.7"/>
			<g>
				<g>
					<path class="st0" d="M-1145-127.3c0,2.8-2.3,5-5,5c-2.8,0-5-2.3-5-5c0-2.8,2.3-5,5-5C-1147.2-132.4-1145-130.1-1145-127.3z"/>
				</g>
				<g>
					<path class="st0" d="M-1150-120.6L-1150-120.6c-5.2,0-9.3,4.2-9.3,9.3l0,0c0,1.4,1.1,2.5,2.5,2.5h13.8c1.4,0,2.5-1.1,2.5-2.5
						l0,0C-1140.7-116.4-1144.9-120.6-1150-120.6z"/>
				</g>
			</g>
		</g>
		<g>
			<circle class="st5" cx="-1150" cy="-64.4" r="17.7"/>
			<g>
				<path class="st0" d="M-1142-59v-14.3c0-1.6-1.3-2.9-2.9-2.9h-10.2c-1.6,0-2.9,1.3-2.9,2.9V-59H-1142z M-1150-74.4
					c0.5,0,0.9,0.4,0.9,0.9s-0.4,0.9-0.9,0.9c-0.5,0-0.9-0.4-0.9-0.9S-1150.5-74.4-1150-74.4z"/>
				<path class="st0" d="M-1158-57.3v1.8c0,1.6,1.3,2.9,2.9,2.9h10.2c1.6,0,2.9-1.3,2.9-2.9v-1.8H-1158z M-1150-54.2
					c-0.5,0-0.9-0.4-0.9-0.9c0-0.5,0.4-0.9,0.9-0.9c0.5,0,0.9,0.4,0.9,0.9C-1149.2-54.6-1149.5-54.2-1150-54.2z"/>
			</g>
		</g>
		<g>
			<circle class="st6" cx="-1150" cy="-9.8" r="17.7"/>
			<g>
				<g>
					<path class="st0" d="M-1152.4-22.1l-8.3,9.6c-0.4,0.5-0.1,1.2,0.5,1.2h2.4h17.1h0.9c0.6,0,0.9-0.7,0.5-1.2l-8.3-9.6
						C-1148.9-23.6-1151.2-23.6-1152.4-22.1z"/>
				</g>
				<g>
					<path class="st0" d="M-1140.7-9.6v9.3c0,0.4-0.3,0.7-0.7,0.7h-17.2c-0.4,0-0.7-0.3-0.7-0.7v-9.3H-1140.7z"/>
				</g>
			</g>
		</g>
		<g>
			<circle class="st7" cx="-1150" cy="44.7" r="17.7"/>
			<g>
				<path class="st0" d="M-1160.1,35.9l8.2,9.3c0.5,0.5,1.1,0.8,1.8,0.8c0.7,0,1.4-0.3,1.8-0.8l8.1-9.1c0.1-0.1,0.1-0.1,0.2-0.2
					c-0.3-0.1-0.7-0.2-1.1-0.2h-18C-1159.4,35.7-1159.8,35.7-1160.1,35.9C-1160.1,35.9-1160.1,35.9-1160.1,35.9z"/>
				<path class="st0" d="M-1138.6,37c0,0.1-0.1,0.2-0.2,0.3l-8.1,9.1c-0.8,0.9-1.9,1.4-3.2,1.4c-1.2,0-2.4-0.5-3.2-1.4l-8.2-9.3
					c0,0,0,0,0-0.1c-0.3,0.4-0.4,0.9-0.4,1.4V51c0,1.5,1.2,2.8,2.8,2.8h18c1.5,0,2.8-1.2,2.8-2.8V38.4
					C-1138.2,37.9-1138.4,37.4-1138.6,37z"/>
			</g>
		</g>
		<g>
			
				<ellipse transform="matrix(0.9403 -0.3404 0.3404 0.9403 -102.5026 -385.5642)" class="st8" cx="-1150" cy="99.3" rx="17.7" ry="17.7"/>
			<path class="st0" d="M-1139.6,99.4l-15.7-11.5c-0.6-0.5-1.5,0-1.5,0.8l0,19.5c0,1,1,1.6,1.9,1.2l5.5-6l3.6,7.1
				c0.1,0.3,0.4,0.5,0.7,0.5c0.1,0,0.3,0,0.4-0.1c0.4-0.2,0.6-0.7,0.4-1.1l-3.6-7.1l8.2-0.9C-1138.9,101.2-1138.8,100-1139.6,99.4z"
				/>
		</g>
		<g>
			<circle class="st9" cx="-1150" cy="153.9" r="17.7"/>
			<g>
				<path class="st0" d="M-1150,142.1c-5,0-9.1,4.1-9.1,9.1c0,4.3,6.6,12.1,8.6,14.3c0.3,0.3,0.8,0.3,1.1,0c2-2.2,8.6-10,8.6-14.3
					C-1140.9,146.2-1145,142.1-1150,142.1z M-1150,155.3c-2.5,0-4.5-2-4.5-4.5c0-2.5,2-4.5,4.5-4.5c2.5,0,4.5,2,4.5,4.5
					C-1145.5,153.3-1147.5,155.3-1150,155.3z"/>
			</g>
		</g>
		<g>
			<circle class="st10" cx="-1150" cy="208.5" r="17.7"/>
			<g>
				<path class="st0" d="M-1154.4,209.4c0.2,6,2.4,10.1,4.4,10.1c2,0,4.2-4.1,4.4-10.1H-1154.4z"/>
				<path class="st0" d="M-1150,197.5c-2,0-4.2,4.1-4.4,10.1h8.8C-1145.8,201.6-1148,197.5-1150,197.5z"/>
				<path class="st0" d="M-1143.9,207.6h5.7c-0.4-5.2-4.1-9.5-9.1-10.7C-1145.4,198.8-1144,202.8-1143.9,207.6z"/>
				<path class="st0" d="M-1143.9,209.4c-0.1,4.8-1.5,8.8-3.5,10.7c5-1.2,8.7-5.4,9.1-10.7H-1143.9z"/>
				<path class="st0" d="M-1156.2,209.4h-5.7c0.4,5.2,4.1,9.5,9.1,10.7C-1154.7,218.1-1156,214.2-1156.2,209.4z"/>
				<path class="st0" d="M-1156.2,207.6c0.1-4.8,1.5-8.8,3.5-10.7c-5,1.2-8.7,5.4-9.1,10.7H-1156.2z"/>
			</g>
		</g>
	</g>
	<g>
		<g>
			<circle class="st10" cx="-973.7" cy="-9.8" r="17.7"/>
			<path class="st0" d="M-963.9-15.9c-0.6,0.3-1.3,0.4-2,0.6c0.3-0.1,0.8-0.6,1-0.9c0.3-0.4,0.5-0.7,0.6-1.2c0,0,0-0.1,0-0.1
				c0,0-0.1,0-0.1,0c-0.7,0.4-1.5,0.7-2.3,0.9c-0.1,0-0.1,0-0.2,0c-0.1-0.1-0.1-0.1-0.2-0.2c-0.3-0.3-0.7-0.5-1.1-0.7
				c-0.5-0.2-1.1-0.3-1.7-0.3c-0.6,0-1.1,0.2-1.6,0.5c-0.5,0.3-1,0.6-1.3,1.1c-0.4,0.5-0.6,1-0.8,1.6c-0.1,0.6-0.1,1.1,0,1.7
				c0,0.1,0,0.1-0.1,0.1c-3.2-0.5-5.8-1.6-7.9-4c-0.1-0.1-0.1-0.1-0.2,0c-0.9,1.4-0.5,3.7,0.7,4.8c0.2,0.1,0.3,0.3,0.5,0.4
				c-0.1,0-0.8-0.1-1.5-0.4c-0.1-0.1-0.1,0-0.1,0.1c0,0.2,0,0.3,0,0.5c0.2,1.4,1.2,2.7,2.5,3.2c0.2,0.1,0.3,0.1,0.5,0.2
				c-0.3,0.1-0.6,0.1-1.5,0c-0.1,0-0.2,0-0.1,0.1c0.7,1.8,2.1,2.3,3.2,2.6c0.1,0,0.3,0,0.4,0.1c0,0,0,0,0,0
				c-0.4,0.5-1.6,0.9-2.2,1.1c-1,0.4-2.2,0.5-3.3,0.4c-0.2,0-0.2,0-0.3,0c0,0,0,0.1,0.1,0.1c0.2,0.1,0.5,0.3,0.7,0.4
				c0.7,0.4,1.4,0.7,2.2,0.9c3.9,1.1,8.4,0.3,11.3-2.6c2.3-2.3,3.1-5.5,3.1-8.7c0-0.1,0.1-0.2,0.2-0.3c0.6-0.5,1.1-1,1.5-1.6
				C-963.9-15.7-963.9-15.8-963.9-15.9C-963.9-15.9-963.9-15.9-963.9-15.9C-963.9-15.9-963.9-15.9-963.9-15.9z"/>
		</g>
		<g>
			<linearGradient id="SVGID_1_" gradientUnits="userSpaceOnUse" x1="-990.2873" y1="-78.4142" x2="-954.9127" y2="-48.5369">
				<stop  offset="1.104800e-03" style="stop-color:#FBE18A"/>
				<stop  offset="0.2094" style="stop-color:#FCBB45"/>
				<stop  offset="0.3765" style="stop-color:#F75274"/>
				<stop  offset="0.5238" style="stop-color:#D53692"/>
				<stop  offset="0.7394" style="stop-color:#8F39CE"/>
				<stop  offset="1" style="stop-color:#5B4FE9"/>
			</linearGradient>
			<circle class="st11" cx="-973.7" cy="-64.4" r="17.7"/>
			<g>
				<g>
					<path class="st0" d="M-968.2-71.1c-0.7,0-1.2,0.5-1.2,1.2c0,0.7,0.5,1.2,1.2,1.2c0.7,0,1.2-0.5,1.2-1.2
						C-967-70.6-967.6-71.1-968.2-71.1z"/>
					<path class="st0" d="M-973.6-69.6c-2.8,0-5.1,2.3-5.1,5.1c0,2.8,2.3,5.1,5.1,5.1c2.8,0,5.1-2.3,5.1-5.1
						C-968.5-67.3-970.8-69.6-973.6-69.6z M-973.6-61.2c-1.8,0-3.3-1.5-3.3-3.3c0-1.8,1.5-3.3,3.3-3.3c1.8,0,3.3,1.5,3.3,3.3
						C-970.4-62.6-971.8-61.2-973.6-61.2z"/>
					<path class="st0" d="M-969.6-54.1h-8.3c-3.4,0-6.2-2.8-6.2-6.2v-8.3c0-3.4,2.8-6.2,6.2-6.2h8.3c3.4,0,6.2,2.8,6.2,6.2v8.3
						C-963.3-56.9-966.1-54.1-969.6-54.1z M-977.9-72.9c-2.4,0-4.3,1.9-4.3,4.3v8.3c0,2.4,1.9,4.3,4.3,4.3h8.3
						c2.4,0,4.3-1.9,4.3-4.3v-8.3c0-2.4-1.9-4.3-4.3-4.3H-977.9z"/>
				</g>
			</g>
		</g>
		<g>
			<g>
				<path class="st12" d="M-956-119c0-9.8-7.9-17.7-17.7-17.7c-9.8,0-17.7,7.9-17.7,17.7c0,8.8,6.5,16.1,14.9,17.5v-12.4h-4.5v-5.1
					h4.5v-3.9c0-4.4,2.6-6.9,6.7-6.9c1.9,0,4,0.3,4,0.3v4.4h-2.2c-2.2,0-2.9,1.4-2.9,2.8v3.3h4.9l-0.8,5.1h-4.1v12.4
					C-962.5-102.9-956-110.2-956-119z"/>
				<path class="st0" d="M-966.8-113.9l0.8-5.1h-4.9v-3.3c0-1.4,0.7-2.8,2.9-2.8h2.2v-4.4c0,0-2-0.3-4-0.3c-4,0-6.7,2.4-6.7,6.9v3.9
					h-4.5v5.1h4.5v12.4c0.9,0.1,1.8,0.2,2.8,0.2s1.9-0.1,2.8-0.2v-12.4H-966.8z"/>
			</g>
		</g>
		<g>
			<circle cx="-973.7" cy="99.3" r="17.7"/>
			<g>
				<path class="st13" d="M-969.1,96.3c1.4,1,3.2,1.6,5.1,1.6v-3.6c-0.4,0-0.7,0-1.1-0.1V97c-1.9,0-3.7-0.6-5.1-1.6v7.4
					c0,3.7-3,6.7-6.7,6.7c-1.4,0-2.7-0.4-3.8-1.1c1.2,1.3,2.9,2,4.8,2c3.7,0,6.7-3,6.7-6.7L-969.1,96.3L-969.1,96.3z M-967.8,92.6
					c-0.7-0.8-1.2-1.8-1.3-3v-0.5h-1C-969.8,90.6-969,91.8-967.8,92.6L-967.8,92.6z M-978.3,105.6c-0.4-0.5-0.6-1.2-0.6-1.9
					c0-1.7,1.4-3.1,3.1-3.1c0.3,0,0.6,0,0.9,0.1V97c-0.4,0-0.7-0.1-1.1-0.1v2.9c-0.3-0.1-0.6-0.1-0.9-0.1c-1.7,0-3.1,1.4-3.1,3.1
					C-980,104-979.3,105.1-978.3,105.6z"/>
				<path class="st1" d="M-970.1,95.4c1.4,1,3.2,1.6,5.1,1.6v-2.9c-1.1-0.2-2-0.8-2.7-1.5c-1.2-0.8-2.1-2-2.3-3.4h-2.7v14.6
					c0,1.7-1.4,3.1-3.1,3.1c-1,0-1.9-0.5-2.5-1.2c-1-0.5-1.7-1.6-1.7-2.8c0-1.7,1.4-3.1,3.1-3.1c0.3,0,0.6,0.1,0.9,0.1V97
					c-3.7,0.1-6.6,3.1-6.6,6.7c0,1.8,0.7,3.5,1.9,4.7c1.1,0.7,2.4,1.1,3.8,1.1c3.7,0,6.7-3,6.7-6.7V95.4z"/>
				<path class="st14" d="M-965.1,94.1v-0.8c-1,0-1.9-0.3-2.7-0.8C-967,93.4-966.1,93.9-965.1,94.1z M-970.1,89.2
					c0-0.1,0-0.3-0.1-0.4v-0.5h-3.7v14.6c0,1.7-1.4,3.1-3.1,3.1c-0.5,0-1-0.1-1.4-0.3c0.6,0.7,1.5,1.2,2.5,1.2
					c1.7,0,3.1-1.4,3.1-3.1V89.2H-970.1z M-976,97v-0.8c-0.3,0-0.6-0.1-0.9-0.1c-3.7,0-6.7,3-6.7,6.7c0,2.3,1.2,4.4,3,5.6
					c-1.2-1.2-1.9-2.9-1.9-4.7C-982.6,100.1-979.6,97.1-976,97L-976,97z"/>
			</g>
		</g>
		<g>
			<path class="st9" d="M-973.7,27.1c-9.8,0-17.7,7.9-17.7,17.7c0,7.2,4.3,13.4,10.5,16.1c0-0.5,0-1,0-1.5c0.1-1.7,0.3-2.3,2.5-11.6
				c0-0.1,0-0.3-0.1-0.4c-0.5-1.4-0.6-2.9-0.2-4.4c1-3.2,4.6-3.4,5.2-0.8c0.4,1.6-0.6,3.7-1.4,6.9c-0.7,2.6,2.4,4.4,5,2.5
				c2.4-1.7,3.3-5.9,3.2-8.9c-0.3-5.9-6.8-7.2-10.9-5.3c-4.7,2.2-5.8,8-3.7,10.7c0.3,0.3,0.5,0.5,0.4,0.9c-0.1,0.5-0.3,1.1-0.4,1.6
				c-0.1,0.4-0.4,0.5-0.8,0.4c-0.8-0.3-1.4-0.8-2-1.5c-1.8-2.2-2.3-6.7,0.1-10.4c2.6-4.2,7.6-5.8,12.1-5.3c5.4,0.6,8.8,4.3,9.4,8.4
				c0.3,1.9,0.1,6.6-2.6,9.9c-3.1,3.8-8,4-10.3,1.7c-0.2-0.2-0.3-0.4-0.5-0.6c0,0.1,0,0.2-0.1,0.2c-1.1,4.3-1.2,5.3-2.4,7.3
				c-0.2,0.3-0.4,0.6-0.6,0.9c1.7,0.5,3.4,0.8,5.3,0.8c9.8,0,17.7-7.9,17.7-17.7C-956,35-963.9,27.1-973.7,27.1z"/>
			<path class="st0" d="M-976.1,53.5c0-0.1,0-0.1,0.1-0.2c0.2,0.2,0.3,0.4,0.5,0.6c2.3,2.3,7.3,2.1,10.3-1.7c2.7-3.3,2.9-8,2.6-9.9
				c-0.6-4.2-4-7.8-9.4-8.4c-4.5-0.5-9.4,1.2-12.1,5.3c-2.4,3.7-1.9,8.2-0.1,10.4c0.5,0.7,1.2,1.2,2,1.5c0.4,0.2,0.7,0,0.8-0.4
				c0.1-0.5,0.3-1.1,0.4-1.6c0.1-0.3-0.1-0.6-0.4-0.9c-2.1-2.7-1.1-8.5,3.7-10.7c4.1-1.9,10.6-0.6,10.9,5.3c0.2,3-0.8,7.1-3.2,8.9
				c-2.6,1.9-5.7,0-5-2.5c0.8-3.1,1.8-5.3,1.4-6.9c-0.6-2.6-4.2-2.4-5.2,0.8c-0.5,1.5-0.4,2.9,0.2,4.4c0,0.1,0.1,0.2,0.1,0.4
				c-2.2,9.3-2.4,9.9-2.5,11.6c0,0.5,0,1,0,1.5c0.6,0.3,1.3,0.5,2,0.8c0.2-0.3,0.4-0.6,0.6-0.9C-977.3,58.7-977.2,57.8-976.1,53.5z"
				/>
		</g>
		<g>
			
				<ellipse transform="matrix(0.1586 -0.9873 0.9873 0.1586 -971.2191 -831.8923)" class="st8" cx="-973.7" cy="153.9" rx="17.7" ry="17.7"/>
			<path class="st0" d="M-983.3,163.9l1.5-5.5c-0.8-1.5-1.3-3.2-1.3-4.9c0-5.6,4.6-10.2,10.2-10.2c5.6,0,10.2,4.6,10.2,10.2
				c0,5.6-4.6,10.2-10.2,10.2c-1.7,0-3.3-0.4-4.8-1.2L-983.3,163.9z M-977.5,160.4l0.3,0.2c1.3,0.8,2.7,1.2,4.2,1.2
				c4.5,0,8.2-3.7,8.2-8.2c0-4.5-3.7-8.2-8.2-8.2c-4.5,0-8.2,3.7-8.2,8.2c0,1.5,0.4,3,1.2,4.3l0.2,0.4l-0.8,3.1L-977.5,160.4z"/>
			<path class="st1" d="M-969.1,154.9c-0.4-0.3-1-0.5-1.5-0.3c-0.4,0.2-0.6,0.7-0.9,1c-0.1,0.2-0.3,0.2-0.5,0.1
				c-1.4-0.6-2.5-1.5-3.3-2.8c-0.1-0.2-0.1-0.4,0.1-0.6c0.2-0.3,0.5-0.6,0.6-1c0.1-0.4-0.1-0.8-0.3-1.1c-0.2-0.4-0.4-1-0.8-1.3
				c-0.4-0.2-0.9-0.1-1.3,0.2c-0.6,0.5-0.9,1.3-0.9,2c0,0.2,0,0.4,0.1,0.6c0.1,0.5,0.4,1,0.6,1.4c0.2,0.3,0.4,0.7,0.6,1
				c0.8,1,1.7,1.9,2.8,2.6c0.5,0.3,1.1,0.6,1.7,0.8c0.7,0.2,1.3,0.5,2,0.3c0.8-0.1,1.5-0.6,1.8-1.4c0.1-0.2,0.1-0.5,0.1-0.7
				C-968.1,155.4-968.7,155.2-969.1,154.9z"/>
		</g>
		<g>
			<circle class="st9" cx="-973.7" cy="208.5" r="17.7"/>
			<path class="st0" d="M-964.2,206c0-2.3-1.9-4.2-4.2-4.2h-10.9c-2.3,0-4.2,1.9-4.2,4.2v5.1c0,2.3,1.9,4.2,4.2,4.2h10.9
				c2.3,0,4.2-1.9,4.2-4.2V206z M-970.6,208.9l-4.9,2.4c-0.2,0.1-0.8,0-0.8-0.3v-4.9c0-0.2,0.7-0.4,0.8-0.2l4.7,2.5
				C-970.6,208.5-970.4,208.8-970.6,208.9z"/>
		</g>
	</g>
	<g>
		<g>
			<g>
				<linearGradient id="SVGID_2_" gradientUnits="userSpaceOnUse" x1="-1044.6598" y1="-89.2925" x2="-1012.5716" y2="-58.5787">
					<stop  offset="1.104800e-03" style="stop-color:#FBE18A"/>
					<stop  offset="0.2094" style="stop-color:#FCBB45"/>
					<stop  offset="0.3765" style="stop-color:#F75274"/>
					<stop  offset="0.5238" style="stop-color:#D53692"/>
					<stop  offset="0.7394" style="stop-color:#8F39CE"/>
					<stop  offset="1" style="stop-color:#5B4FE9"/>
				</linearGradient>
				<path class="st15" d="M-1028.5-75.9c-1.1,0-2.1,0.9-2.1,2.1c0,1.1,0.9,2.1,2.1,2.1c1.1,0,2.1-0.9,2.1-2.1
					C-1026.4-74.9-1027.3-75.9-1028.5-75.9z"/>
				<linearGradient id="SVGID_3_" gradientUnits="userSpaceOnUse" x1="-1053.714" y1="-79.833" x2="-1021.6259" y2="-49.1193">
					<stop  offset="1.104800e-03" style="stop-color:#FBE18A"/>
					<stop  offset="0.2094" style="stop-color:#FCBB45"/>
					<stop  offset="0.3765" style="stop-color:#F75274"/>
					<stop  offset="0.5238" style="stop-color:#D53692"/>
					<stop  offset="0.7394" style="stop-color:#8F39CE"/>
					<stop  offset="1" style="stop-color:#5B4FE9"/>
				</linearGradient>
				<path class="st16" d="M-1037.7-73.2c-4.8,0-8.7,3.9-8.7,8.7c0,4.8,3.9,8.7,8.7,8.7c4.8,0,8.7-3.9,8.7-8.7
					C-1029-69.3-1032.9-73.2-1037.7-73.2z M-1037.7-58.9c-3.1,0-5.6-2.5-5.6-5.6c0-3.1,2.5-5.6,5.6-5.6c3.1,0,5.6,2.5,5.6,5.6
					C-1032.1-61.4-1034.6-58.9-1037.7-58.9z"/>
				<linearGradient id="SVGID_4_" gradientUnits="userSpaceOnUse" x1="-1053.7834" y1="-79.7604" x2="-1021.6956" y2="-49.0469">
					<stop  offset="1.104800e-03" style="stop-color:#FBE18A"/>
					<stop  offset="0.2094" style="stop-color:#FCBB45"/>
					<stop  offset="0.3765" style="stop-color:#F75274"/>
					<stop  offset="0.5238" style="stop-color:#D53692"/>
					<stop  offset="0.7394" style="stop-color:#8F39CE"/>
					<stop  offset="1" style="stop-color:#5B4FE9"/>
				</linearGradient>
				<path class="st17" d="M-1030.8-46.8h-14.1c-5.9,0-10.6-4.8-10.6-10.6v-14.1c0-5.9,4.8-10.6,10.6-10.6h14.1
					c5.9,0,10.6,4.8,10.6,10.6v14.1C-1020.1-51.6-1024.9-46.8-1030.8-46.8z M-1044.9-78.8c-4,0-7.3,3.3-7.3,7.3v14.1
					c0,4,3.3,7.3,7.3,7.3h14.1c4,0,7.3-3.3,7.3-7.3v-14.1c0-4-3.3-7.3-7.3-7.3H-1044.9z"/>
			</g>
		</g>
		<path class="st12" d="M-1029.6-116.9l1-6.4h-6.1v-4.2c0-1.8,0.9-3.5,3.6-3.5h2.8v-5.5c0,0-2.5-0.4-5-0.4c-5.1,0-8.4,3.1-8.4,8.6
			v4.9h-5.6v6.4h5.6v15.5h6.9v-15.5H-1029.6z"/>
		<path class="st10" d="M-1016.5-23.3c-1.4,0.6-2.9,1-4.3,1.2c0.7-0.1,1.7-1.4,2.1-1.9c0.6-0.8,1.1-1.7,1.4-2.6c0-0.1,0.1-0.2,0-0.2
			c-0.1,0-0.2,0-0.2,0c-1.6,0.9-3.3,1.5-5.2,2c-0.1,0-0.3,0-0.4-0.1c-0.1-0.2-0.3-0.3-0.5-0.5c-0.8-0.6-1.6-1.2-2.5-1.5
			c-1.2-0.5-2.5-0.7-3.8-0.6c-1.3,0.1-2.5,0.4-3.6,1c-1.1,0.6-2.1,1.4-2.9,2.4c-0.8,1-1.4,2.2-1.8,3.5c-0.3,1.2-0.3,2.5-0.1,3.7
			c0,0.2,0,0.2-0.2,0.2c-7.1-1.1-12.9-3.6-17.7-9c-0.2-0.2-0.3-0.2-0.5,0c-2.1,3.1-1.1,8.1,1.5,10.6c0.3,0.3,0.7,0.7,1.1,1
			c-0.1,0-1.9-0.2-3.4-1c-0.2-0.1-0.3-0.1-0.3,0.2c0,0.3,0,0.6,0.1,1c0.4,3.2,2.6,6.1,5.6,7.2c0.4,0.2,0.8,0.3,1.1,0.3
			c-0.7,0.2-1.4,0.3-3.4,0.1c-0.2,0-0.3,0.1-0.2,0.3c1.5,4,4.7,5.2,7,5.9c0.3,0.1,0.6,0.1,1,0.1c0,0,0,0-0.1,0.1
			c-0.8,1.2-3.5,2.1-4.8,2.5c-2.3,0.8-4.9,1.2-7.3,0.9c-0.4-0.1-0.5-0.1-0.6,0c-0.1,0.1,0,0.2,0.1,0.3c0.5,0.3,1,0.6,1.5,0.9
			c1.6,0.8,3.2,1.5,4.9,2c8.8,2.4,18.7,0.6,25.2-5.9c5.2-5.1,7-12.2,7-19.3c0-0.3,0.3-0.4,0.5-0.6c1.3-1,2.4-2.2,3.4-3.6
			c0.2-0.3,0.2-0.6,0.2-0.7c0,0,0,0,0,0C-1016.3-23.4-1016.3-23.4-1016.5-23.3z"/>
		<path class="st18" d="M-1040.1,50.1c0,0.1-0.1,0.2-0.1,0.3c-1.3,5.1-1.4,6.2-2.8,8.6c-0.6,1.1-1.4,2.2-2.1,3.2
			c-0.1,0.1-0.2,0.3-0.4,0.2c-0.2,0-0.2-0.2-0.2-0.4c-0.2-1.5-0.3-3.1-0.3-4.7c0.1-2,0.3-2.7,2.9-13.8c0-0.2,0-0.3-0.1-0.5
			c-0.6-1.7-0.8-3.4-0.2-5.2c1.2-3.8,5.5-4.1,6.2-0.9c0.5,1.9-0.8,4.4-1.7,8.1c-0.8,3.1,2.8,5.2,5.9,3c2.8-2.1,3.9-7,3.7-10.5
			c-0.4-7-8.1-8.5-12.9-6.2c-5.6,2.6-6.8,9.5-4.3,12.6c0.3,0.4,0.6,0.6,0.5,1.1c-0.2,0.6-0.3,1.3-0.5,1.9c-0.1,0.5-0.5,0.6-1,0.4
			c-0.9-0.4-1.7-1-2.3-1.7c-2.1-2.6-2.7-7.9,0.1-12.3c3.1-4.9,9-6.9,14.3-6.3c6.3,0.7,10.4,5.1,11.1,10c0.3,2.2,0.1,7.8-3.1,11.7
			c-3.6,4.5-9.5,4.8-12.2,2C-1039.7,50.6-1039.9,50.4-1040.1,50.1z"/>
		<g>
			<path class="st8" d="M-1055.5,171.6l2.5-9.5c-1.4-2.6-2.2-5.5-2.2-8.4c0-9.6,7.8-17.5,17.5-17.5c9.6,0,17.5,7.8,17.5,17.5
				c0,9.6-7.8,17.5-17.5,17.5c-2.9,0-5.7-0.7-8.3-2.1L-1055.5,171.6z M-1045.5,165.5l0.6,0.4c2.2,1.3,4.7,2,7.2,2
				c7.8,0,14.2-6.4,14.2-14.2c0-7.8-6.4-14.2-14.2-14.2c-7.8,0-14.2,6.4-14.2,14.2c0,2.6,0.7,5.1,2.1,7.3l0.4,0.6l-1.4,5.3
				L-1045.5,165.5z"/>
			<path class="st19" d="M-1031.1,156.1c-0.7-0.4-1.7-0.9-2.5-0.6c-0.7,0.3-1.1,1.3-1.5,1.8c-0.2,0.3-0.5,0.3-0.8,0.2
				c-2.4-1-4.3-2.6-5.7-4.8c-0.2-0.3-0.2-0.6,0.1-0.9c0.4-0.5,0.9-1,1-1.7c0.1-0.6-0.2-1.4-0.5-2c-0.3-0.7-0.7-1.8-1.5-2.2
				c-0.7-0.4-1.6-0.2-2.2,0.3c-1,0.8-1.5,2.2-1.5,3.5c0,0.4,0.1,0.7,0.1,1.1c0.2,0.9,0.6,1.7,1.1,2.4c0.3,0.6,0.7,1.1,1.1,1.7
				c1.3,1.8,2.9,3.3,4.8,4.5c0.9,0.6,2,1.1,3,1.4c1.2,0.4,2.2,0.8,3.5,0.6c1.3-0.3,2.6-1.1,3.2-2.4c0.2-0.4,0.2-0.8,0.1-1.2
				C-1029.4,157-1030.5,156.5-1031.1,156.1z"/>
		</g>
		<path class="st9" d="M-1019.8,203.8c0-4.4-3.5-7.9-7.9-7.9h-20.2c-4.4,0-7.9,3.5-7.9,7.9v9.4c0,4.4,3.5,7.9,7.9,7.9h20.2
			c4.4,0,7.9-3.5,7.9-7.9V203.8z M-1031.7,209.2l-9,4.5c-0.4,0.2-1.6-0.1-1.6-0.5V204c0-0.4,1.2-0.7,1.6-0.5l8.7,4.7
			C-1031.7,208.5-1031.3,209-1031.7,209.2z"/>
		<g>
			<path class="st13" d="M-1029.9,94.2c2.4,1.7,5.3,2.7,8.5,2.7v-6.1c-0.6,0-1.2-0.1-1.8-0.2v4.8c-3.2,0-6.1-1-8.5-2.7v12.4
				c0,6.2-5,11.2-11.2,11.2c-2.3,0-4.5-0.7-6.2-1.9c2,2.1,4.9,3.4,8,3.4c6.2,0,11.2-5,11.2-11.2L-1029.9,94.2L-1029.9,94.2z
				 M-1027.8,88.1c-1.2-1.3-2-3-2.2-4.9v-0.8h-1.7C-1031.2,84.7-1029.8,86.8-1027.8,88.1L-1027.8,88.1z M-1045.3,109.6
				c-0.7-0.9-1-2-1-3.1c0-2.8,2.3-5.1,5.1-5.1c0.5,0,1.1,0.1,1.6,0.2v-6.2c-0.6-0.1-1.2-0.1-1.8-0.1v4.8c-0.5-0.2-1-0.2-1.6-0.2
				c-2.8,0-5.1,2.3-5.1,5.1C-1048.1,107.1-1046.9,108.8-1045.3,109.6z"/>
			<path class="st3" d="M-1031.7,92.7c2.4,1.7,5.3,2.7,8.5,2.7v-4.8c-1.8-0.4-3.3-1.3-4.5-2.6c-2-1.3-3.4-3.3-3.9-5.7h-4.4v24.2
				c0,2.8-2.3,5.1-5.1,5.1c-1.7,0-3.1-0.8-4.1-2c-1.7-0.8-2.8-2.6-2.8-4.6c0-2.8,2.3-5.1,5.1-5.1c0.5,0,1.1,0.1,1.6,0.2v-4.8
				c-6.1,0.1-11,5.1-11,11.2c0,3.1,1.2,5.8,3.2,7.8c1.8,1.2,3.9,1.9,6.2,1.9c6.2,0,11.2-5,11.2-11.2V92.7z"/>
			<path class="st14" d="M-1023.3,90.6v-1.3c-1.6,0-3.1-0.4-4.5-1.3C-1026.6,89.4-1025,90.3-1023.3,90.6z M-1031.6,82.3
				c0-0.2-0.1-0.5-0.1-0.7v-0.8h-6.1v24.2c0,2.8-2.3,5.1-5.1,5.1c-0.8,0-1.6-0.2-2.3-0.5c0.9,1.2,2.4,2,4.1,2c2.8,0,5.1-2.3,5.1-5.1
				V82.3H-1031.6z M-1041.4,95.3V94c-0.5-0.1-1-0.1-1.5-0.1c-6.2,0-11.2,5-11.2,11.2c0,3.9,2,7.3,5,9.3c-2-2-3.2-4.8-3.2-7.8
				C-1052.4,100.4-1047.5,95.5-1041.4,95.3L-1041.4,95.3z"/>
		</g>
	</g>
	<line class="st20" x1="-902.7" y1="-138" x2="-902.7" y2="226.2"/>
	<line class="st21" x1="-1094.2" y1="-138" x2="-1094.2" y2="227.5"/>
	<line class="st21" x1="-645.5" y1="-138" x2="-645.5" y2="227.5"/>
</g>
<g id="TEXT">
	<text transform="matrix(1 0 0 1 -1174.1547 -175.4213)"><tspan x="0" y="0" style="font-family:'Montserrat-Bold'; font-size:12px; letter-spacing:4;">Icons</tspan><tspan x="64.2" y="0" style="fill:#808080; font-family:'Montserrat-Bold'; font-size:12px; letter-spacing:4;"> &amp; </tspan><tspan x="94.1" y="0" style="font-family:'Montserrat-Bold'; font-size:12px; letter-spacing:4;">Social Media Logos</tspan><tspan x="321.2" y="0" style="fill:#808080; font-family:'Montserrat-Bold'; font-size:12px; letter-spacing:4;"> for </tspan><tspan x="378.7" y="0" style="font-family:'Montserrat-Bold'; font-size:12px; letter-spacing:4;">business card</tspan></text>
</g>
</svg>
